<?xml version="1.0" encoding="UTF-8" standalone="no"?><svg xmlns="http://www.w3.org/2000/svg" xmlns:xlink="http://www.w3.org/1999/xlink" contentScriptType="application/ecmascript" contentStyleType="text/css" height="476px" preserveAspectRatio="none" style="width:820px;height:476px;" version="1.1" viewBox="0 0 820 476" width="820px" zoomAndPan="magnify"><defs><filter height="300%" id="fbsfm8jt2i08z" width="300%" x="-1" y="-1"><feGaussianBlur result="blurOut" stdDeviation="2.0"/><feColorMatrix in="blurOut" result="blurOut2" type="matrix" values="0 0 0 0 0 0 0 0 0 0 0 0 0 0 0 0 0 0 .4 0"/><feOffset dx="4.0" dy="4.0" in="blurOut2" result="blurOut3"/><feBlend in="SourceGraphic" in2="blurOut3" mode="normal"/></filter></defs><g><!--MD5=[c60af77fe5573b84a4aa4bce89659574]
class Server--><rect codeLine="1" fill="#FEFECE" filter="url(#fbsfm8jt2i08z)" height="86.4141" id="Server" style="stroke: #A80036; stroke-width: 1.5;" width="238" x="7" y="39"/><ellipse cx="101.25" cy="55" fill="#ADD1B2" rx="11" ry="11" style="stroke: #A80036; stroke-width: 1.0;"/><path d="M103.5938,50.6719 C102.6563,50.2344 102.0625,50.0938 101.1875,50.0938 C98.5625,50.0938 96.5625,52.1719 96.5625,54.8906 L96.5625,56.0156 C96.5625,58.5938 98.6719,60.4844 101.5625,60.4844 C102.7813,60.4844 103.9375,60.1875 104.6875,59.6406 C105.2656,59.2344 105.5938,58.7813 105.5938,58.3906 C105.5938,57.9375 105.2031,57.5469 104.7344,57.5469 C104.5156,57.5469 104.3125,57.625 104.125,57.8125 C103.6719,58.2969 103.6719,58.2969 103.4844,58.3906 C103.0625,58.6563 102.375,58.7813 101.6094,58.7813 C99.5625,58.7813 98.2656,57.6875 98.2656,55.9844 L98.2656,54.8906 C98.2656,53.1094 99.5156,51.7969 101.25,51.7969 C101.8281,51.7969 102.4375,51.9531 102.9063,52.2031 C103.3906,52.4844 103.5625,52.7031 103.6563,53.1094 C103.7188,53.5156 103.75,53.6406 103.8906,53.7656 C104.0313,53.9063 104.2656,54.0156 104.4844,54.0156 C104.75,54.0156 105.0156,53.875 105.1875,53.6563 C105.2969,53.5 105.3281,53.3125 105.3281,52.8906 L105.3281,51.4688 C105.3281,51.0313 105.3125,50.9063 105.2188,50.75 C105.0625,50.4844 104.7813,50.3438 104.4844,50.3438 C104.1875,50.3438 103.9844,50.4375 103.7656,50.75 L103.5938,50.6719 Z "/><text fill="#000000" font-family="sans-serif" font-size="12" lengthAdjust="spacingAndGlyphs" textLength="41" x="121.75" y="59.1543">Server</text><line style="stroke: #A80036; stroke-width: 1.5;" x1="8" x2="244" y1="71" y2="71"/><ellipse cx="18" cy="82" fill="none" rx="3" ry="3" style="stroke: #038048; stroke-width: 1.0;"/><text fill="#000000" font-family="sans-serif" font-size="11" lengthAdjust="spacingAndGlyphs" textLength="86" x="27" y="85.2104">Address: String</text><ellipse cx="18" cy="94.8047" fill="none" rx="3" ry="3" style="stroke: #038048; stroke-width: 1.0;"/><text fill="#000000" font-family="sans-serif" font-size="11" lengthAdjust="spacingAndGlyphs" textLength="74" x="27" y="98.0151">Name: String</text><line style="stroke: #A80036; stroke-width: 1.5;" x1="8" x2="244" y1="104.6094" y2="104.6094"/><ellipse cx="18" cy="115.6094" fill="#84BE84" rx="3" ry="3" style="stroke: #038048; stroke-width: 1.0;"/><text fill="#000000" font-family="sans-serif" font-size="11" lengthAdjust="spacingAndGlyphs" textLength="212" x="27" y="118.8198">Server(name: String, address: String)</text><!--MD5=[1b52a8b596ce08ae40bcbd3f2e5d601e]
class InfluxDB--><rect codeLine="8" fill="#FEFECE" filter="url(#fbsfm8jt2i08z)" height="150.4375" id="InfluxDB" style="stroke: #A80036; stroke-width: 1.5;" width="388" x="413" y="7"/><ellipse cx="578.75" cy="23" fill="#ADD1B2" rx="11" ry="11" style="stroke: #A80036; stroke-width: 1.0;"/><path d="M581.0938,18.6719 C580.1563,18.2344 579.5625,18.0938 578.6875,18.0938 C576.0625,18.0938 574.0625,20.1719 574.0625,22.8906 L574.0625,24.0156 C574.0625,26.5938 576.1719,28.4844 579.0625,28.4844 C580.2813,28.4844 581.4375,28.1875 582.1875,27.6406 C582.7656,27.2344 583.0938,26.7813 583.0938,26.3906 C583.0938,25.9375 582.7031,25.5469 582.2344,25.5469 C582.0156,25.5469 581.8125,25.625 581.625,25.8125 C581.1719,26.2969 581.1719,26.2969 580.9844,26.3906 C580.5625,26.6563 579.875,26.7813 579.1094,26.7813 C577.0625,26.7813 575.7656,25.6875 575.7656,23.9844 L575.7656,22.8906 C575.7656,21.1094 577.0156,19.7969 578.75,19.7969 C579.3281,19.7969 579.9375,19.9531 580.4063,20.2031 C580.8906,20.4844 581.0625,20.7031 581.1563,21.1094 C581.2188,21.5156 581.25,21.6406 581.3906,21.7656 C581.5313,21.9063 581.7656,22.0156 581.9844,22.0156 C582.25,22.0156 582.5156,21.875 582.6875,21.6563 C582.7969,21.5 582.8281,21.3125 582.8281,20.8906 L582.8281,19.4688 C582.8281,19.0313 582.8125,18.9063 582.7188,18.75 C582.5625,18.4844 582.2813,18.3438 581.9844,18.3438 C581.6875,18.3438 581.4844,18.4375 581.2656,18.75 L581.0938,18.6719 Z "/><text fill="#000000" font-family="sans-serif" font-size="12" lengthAdjust="spacingAndGlyphs" textLength="48" x="599.25" y="27.1543">InfluxDB</text><line style="stroke: #A80036; stroke-width: 1.5;" x1="414" x2="800" y1="39" y2="39"/><ellipse cx="424" cy="50" fill="none" rx="3" ry="3" style="stroke: #038048; stroke-width: 1.0;"/><text fill="#000000" font-family="sans-serif" font-size="11" lengthAdjust="spacingAndGlyphs" textLength="174" x="433" y="53.2104">currentSewrverAddress: String</text><line style="stroke: #A80036; stroke-width: 1.5;" x1="414" x2="800" y1="59.8047" y2="59.8047"/><ellipse cx="424" cy="70.8047" fill="#84BE84" rx="3" ry="3" style="stroke: #038048; stroke-width: 1.0;"/><text fill="#000000" font-family="sans-serif" font-size="11" lengthAdjust="spacingAndGlyphs" textLength="269" x="433" y="74.0151">setCurrentServerAddress(address: String): void</text><ellipse cx="424" cy="83.6094" fill="#84BE84" rx="3" ry="3" style="stroke: #038048; stroke-width: 1.0;"/><text fill="#000000" font-family="sans-serif" font-size="11" lengthAdjust="spacingAndGlyphs" textLength="136" x="433" y="86.8198">getRamUsage(): Double</text><ellipse cx="424" cy="96.4141" fill="#84BE84" rx="3" ry="3" style="stroke: #038048; stroke-width: 1.0;"/><text fill="#000000" font-family="sans-serif" font-size="11" lengthAdjust="spacingAndGlyphs" textLength="89" x="433" y="99.6245">getUptime(): int</text><ellipse cx="424" cy="109.2188" fill="#84BE84" rx="3" ry="3" style="stroke: #038048; stroke-width: 1.0;"/><text fill="#000000" font-family="sans-serif" font-size="11" lengthAdjust="spacingAndGlyphs" textLength="133" x="433" y="112.4292">getCPUUsage(): Double</text><ellipse cx="424" cy="122.0234" fill="#84BE84" rx="3" ry="3" style="stroke: #038048; stroke-width: 1.0;"/><text fill="#000000" font-family="sans-serif" font-size="11" lengthAdjust="spacingAndGlyphs" textLength="362" x="433" y="125.2339">doInfluxRequest(parameters; Map&lt;String, String&gt;): StringBuffer</text><ellipse cx="424" cy="134.8281" fill="#84BE84" rx="3" ry="3" style="stroke: #038048; stroke-width: 1.0;"/><text fill="#000000" font-family="sans-serif" font-size="11" lengthAdjust="spacingAndGlyphs" textLength="211" x="433" y="138.0386">getCPUOverTime(): UsageWithTime[]</text><ellipse cx="424" cy="147.6328" fill="#84BE84" rx="3" ry="3" style="stroke: #038048; stroke-width: 1.0;"/><text fill="#000000" font-family="sans-serif" font-size="11" lengthAdjust="spacingAndGlyphs" textLength="213" x="433" y="150.8433">getRAMOverTime(): UsageWithTime[]</text><!--MD5=[5fc9b60f5d5c64ad0df8704dae8d48bb]
class Utilities--><rect codeLine="20" fill="#FEFECE" filter="url(#fbsfm8jt2i08z)" height="240.0703" id="Utilities" style="stroke: #A80036; stroke-width: 1.5;" width="317" x="68.5" y="217"/><ellipse cx="200.75" cy="233" fill="#ADD1B2" rx="11" ry="11" style="stroke: #A80036; stroke-width: 1.0;"/><path d="M203.0938,228.6719 C202.1563,228.2344 201.5625,228.0938 200.6875,228.0938 C198.0625,228.0938 196.0625,230.1719 196.0625,232.8906 L196.0625,234.0156 C196.0625,236.5938 198.1719,238.4844 201.0625,238.4844 C202.2813,238.4844 203.4375,238.1875 204.1875,237.6406 C204.7656,237.2344 205.0938,236.7813 205.0938,236.3906 C205.0938,235.9375 204.7031,235.5469 204.2344,235.5469 C204.0156,235.5469 203.8125,235.625 203.625,235.8125 C203.1719,236.2969 203.1719,236.2969 202.9844,236.3906 C202.5625,236.6563 201.875,236.7813 201.1094,236.7813 C199.0625,236.7813 197.7656,235.6875 197.7656,233.9844 L197.7656,232.8906 C197.7656,231.1094 199.0156,229.7969 200.75,229.7969 C201.3281,229.7969 201.9375,229.9531 202.4063,230.2031 C202.8906,230.4844 203.0625,230.7031 203.1563,231.1094 C203.2188,231.5156 203.25,231.6406 203.3906,231.7656 C203.5313,231.9063 203.7656,232.0156 203.9844,232.0156 C204.25,232.0156 204.5156,231.875 204.6875,231.6563 C204.7969,231.5 204.8281,231.3125 204.8281,230.8906 L204.8281,229.4688 C204.8281,229.0313 204.8125,228.9063 204.7188,228.75 C204.5625,228.4844 204.2813,228.3438 203.9844,228.3438 C203.6875,228.3438 203.4844,228.4375 203.2656,228.75 L203.0938,228.6719 Z "/><text fill="#000000" font-family="sans-serif" font-size="12" lengthAdjust="spacingAndGlyphs" textLength="44" x="221.25" y="237.1543">Utilities</text><line style="stroke: #A80036; stroke-width: 1.5;" x1="69.5" x2="384.5" y1="249" y2="249"/><line style="stroke: #A80036; stroke-width: 1.5;" x1="69.5" x2="384.5" y1="257" y2="257"/><ellipse cx="79.5" cy="268" fill="#84BE84" rx="3" ry="3" style="stroke: #038048; stroke-width: 1.0;"/><text fill="#000000" font-family="sans-serif" font-size="11" lengthAdjust="spacingAndGlyphs" textLength="134" x="88.5" y="271.2104">(static) SERVERS: String</text><ellipse cx="79.5" cy="280.8047" fill="#84BE84" rx="3" ry="3" style="stroke: #038048; stroke-width: 1.0;"/><text fill="#000000" font-family="sans-serif" font-size="11" lengthAdjust="spacingAndGlyphs" textLength="112" x="88.5" y="284.0151">(static) USER: String</text><rect fill="#F24D5C" height="6" style="stroke: #C82930; stroke-width: 1.0;" width="6" x="76.5" y="290.6094"/><text fill="#000000" font-family="sans-serif" font-size="11" lengthAdjust="spacingAndGlyphs" textLength="198" x="88.5" y="296.8198">(static) servers: ArrayList&lt;Server&gt;</text><rect fill="#F24D5C" height="6" style="stroke: #C82930; stroke-width: 1.0;" width="6" x="76.5" y="303.4141"/><text fill="#000000" font-family="sans-serif" font-size="11" lengthAdjust="spacingAndGlyphs" textLength="184" x="88.5" y="309.6245">(static) selectedServerIndex: int</text><ellipse cx="79.5" cy="319.2188" fill="#84BE84" rx="3" ry="3" style="stroke: #038048; stroke-width: 1.0;"/><text fill="#000000" font-family="sans-serif" font-size="11" lengthAdjust="spacingAndGlyphs" textLength="267" x="88.5" y="322.4292">(static) sharedPreferences: SharedPreferences</text><text fill="#000000" font-family="sans-serif" font-size="11" lengthAdjust="spacingAndGlyphs" textLength="0" x="92.5" y="335.2339"/><ellipse cx="79.5" cy="344.8281" fill="#84BE84" rx="3" ry="3" style="stroke: #038048; stroke-width: 1.0;"/><text fill="#000000" font-family="sans-serif" font-size="11" lengthAdjust="spacingAndGlyphs" textLength="217" x="88.5" y="348.0386">(static) getAllServerAsString(): String[]</text><ellipse cx="79.5" cy="357.6328" fill="#84BE84" rx="3" ry="3" style="stroke: #038048; stroke-width: 1.0;"/><text fill="#000000" font-family="sans-serif" font-size="11" lengthAdjust="spacingAndGlyphs" textLength="224" x="88.5" y="360.8433">(static) addServer(server: Server): void</text><ellipse cx="79.5" cy="370.4375" fill="#84BE84" rx="3" ry="3" style="stroke: #038048; stroke-width: 1.0;"/><text fill="#000000" font-family="sans-serif" font-size="11" lengthAdjust="spacingAndGlyphs" textLength="203" x="88.5" y="373.6479">(static) getCurrentServerIndex(): int</text><ellipse cx="79.5" cy="383.2422" fill="#84BE84" rx="3" ry="3" style="stroke: #038048; stroke-width: 1.0;"/><text fill="#000000" font-family="sans-serif" font-size="11" lengthAdjust="spacingAndGlyphs" textLength="270" x="88.5" y="386.4526">(static) setCurrentServer(serverIndex: int): void</text><ellipse cx="79.5" cy="396.0469" fill="#84BE84" rx="3" ry="3" style="stroke: #038048; stroke-width: 1.0;"/><text fill="#000000" font-family="sans-serif" font-size="11" lengthAdjust="spacingAndGlyphs" textLength="196" x="88.5" y="399.2573">(static) getCurrentServer(): Server</text><ellipse cx="79.5" cy="408.8516" fill="#84BE84" rx="3" ry="3" style="stroke: #038048; stroke-width: 1.0;"/><text fill="#000000" font-family="sans-serif" font-size="11" lengthAdjust="spacingAndGlyphs" textLength="248" x="88.5" y="412.062">(static) deleteServer(serverIndex: int): void</text><ellipse cx="79.5" cy="421.6563" fill="#84BE84" rx="3" ry="3" style="stroke: #038048; stroke-width: 1.0;"/><text fill="#000000" font-family="sans-serif" font-size="11" lengthAdjust="spacingAndGlyphs" textLength="291" x="88.5" y="424.8667">(static) editServer(serverIndex: int, server: Server)</text><ellipse cx="79.5" cy="434.4609" fill="#84BE84" rx="3" ry="3" style="stroke: #038048; stroke-width: 1.0;"/><text fill="#000000" font-family="sans-serif" font-size="11" lengthAdjust="spacingAndGlyphs" textLength="136" x="88.5" y="437.6714">(static) saveData(): void</text><ellipse cx="79.5" cy="447.2656" fill="#84BE84" rx="3" ry="3" style="stroke: #038048; stroke-width: 1.0;"/><text fill="#000000" font-family="sans-serif" font-size="11" lengthAdjust="spacingAndGlyphs" textLength="132" x="88.5" y="450.4761">(static) loadData(): void</text><!--MD5=[0b4e4b4980470ea387cc45de9bd14b5b]
class Application--><rect fill="#FEFECE" filter="url(#fbsfm8jt2i08z)" height="48" id="Application" style="stroke: #A80036; stroke-width: 1.5;" width="98" x="280" y="58"/><ellipse cx="295" cy="74" fill="#ADD1B2" rx="11" ry="11" style="stroke: #A80036; stroke-width: 1.0;"/><path d="M297.3438,69.6719 C296.4063,69.2344 295.8125,69.0938 294.9375,69.0938 C292.3125,69.0938 290.3125,71.1719 290.3125,73.8906 L290.3125,75.0156 C290.3125,77.5938 292.4219,79.4844 295.3125,79.4844 C296.5313,79.4844 297.6875,79.1875 298.4375,78.6406 C299.0156,78.2344 299.3438,77.7813 299.3438,77.3906 C299.3438,76.9375 298.9531,76.5469 298.4844,76.5469 C298.2656,76.5469 298.0625,76.625 297.875,76.8125 C297.4219,77.2969 297.4219,77.2969 297.2344,77.3906 C296.8125,77.6563 296.125,77.7813 295.3594,77.7813 C293.3125,77.7813 292.0156,76.6875 292.0156,74.9844 L292.0156,73.8906 C292.0156,72.1094 293.2656,70.7969 295,70.7969 C295.5781,70.7969 296.1875,70.9531 296.6563,71.2031 C297.1406,71.4844 297.3125,71.7031 297.4063,72.1094 C297.4688,72.5156 297.5,72.6406 297.6406,72.7656 C297.7813,72.9063 298.0156,73.0156 298.2344,73.0156 C298.5,73.0156 298.7656,72.875 298.9375,72.6563 C299.0469,72.5 299.0781,72.3125 299.0781,71.8906 L299.0781,70.4688 C299.0781,70.0313 299.0625,69.9063 298.9688,69.75 C298.8125,69.4844 298.5313,69.3438 298.2344,69.3438 C297.9375,69.3438 297.7344,69.4375 297.5156,69.75 L297.3438,69.6719 Z "/><text fill="#000000" font-family="sans-serif" font-size="12" lengthAdjust="spacingAndGlyphs" textLength="66" x="309" y="78.1543">Application</text><line style="stroke: #A80036; stroke-width: 1.5;" x1="281" x2="377" y1="90" y2="90"/><line style="stroke: #A80036; stroke-width: 1.5;" x1="281" x2="377" y1="98" y2="98"/><!--MD5=[c63016183f400c8e4543eefa619bbf98]
reverse link Application to Utilities--><path d="M312.046,125.052 C301.857,150.325 288.331,183.876 275.069,216.77 " fill="none" id="Application-backto-Utilities" style="stroke: #A80036; stroke-width: 1.0;"/><polygon fill="none" points="305.616,122.28,319.587,106.348,318.601,127.515,305.616,122.28" style="stroke: #A80036; stroke-width: 1.0;"/><!--MD5=[c4ee084873a96351a95b2fb302b52574]
link Server to Utilities--><path codeLine="39" d="M142.791,125.062 C151.626,147.192 162.994,175.668 174.5,204.491 " fill="none" id="Server-to-Utilities" style="stroke: #A80036; stroke-width: 1.0;"/><polygon fill="#A80036" points="179.433,216.848,180.9232,209.7925,174.9836,205.7034,173.4934,212.7588,179.433,216.848" style="stroke: #A80036; stroke-width: 1.0;"/><!--MD5=[3c1c0e51be05751d35ff64cb5ea7d1cb]
@startuml
class Server {
    + Address: String
    + Name: String

    + Server(name: String, address: String)
}

class InfluxDB {
    + currentSewrverAddress: String

    + setCurrentServerAddress(address: String): void
    + getRamUsage(): Double
    + getUptime(): int
    + getCPUUsage(): Double
    + doInfluxRequest(parameters; Map<String, String>): StringBuffer
    + getCPUOverTime(): UsageWithTime[]
    + getRAMOverTime(): UsageWithTime[]
}

class Utilities extends Application {
    + (static) SERVERS: String
    + (static) USER: String
    - (static) servers: ArrayList<Server>
    - (static) selectedServerIndex: int
    + (static) sharedPreferences: SharedPreferences

    + (static) getAllServerAsString(): String[]
    + (static) addServer(server: Server): void
    + (static) getCurrentServerIndex(): int
    + (static) setCurrentServer(serverIndex: int): void
    + (static) getCurrentServer(): Server
    + (static) deleteServer(serverIndex: int): void
    + (static) editServer(serverIndex: int, server: Server)
    + (static) saveData(): void
    + (static) loadData(): void
}


Server - -* Utilities
@enduml

PlantUML version 1.2020.17beta5(Unknown compile time)
(GPL source distribution)
Java Runtime: Java(TM) SE Runtime Environment
JVM: Java HotSpot(TM) 64-Bit Server VM
Default Encoding: UTF-8
Language: en
Country: US
--></g></svg>