<?xml version="1.0" encoding="UTF-8" standalone="no"?><svg xmlns="http://www.w3.org/2000/svg" xmlns:xlink="http://www.w3.org/1999/xlink" contentScriptType="application/ecmascript" contentStyleType="text/css" height="176px" preserveAspectRatio="none" style="width:414px;height:176px;" version="1.1" viewBox="0 0 414 176" width="414px" zoomAndPan="magnify"><defs><filter height="300%" id="ftzg4333oh19c" width="300%" x="-1" y="-1"><feGaussianBlur result="blurOut" stdDeviation="2.0"/><feColorMatrix in="blurOut" result="blurOut2" type="matrix" values="0 0 0 0 0 0 0 0 0 0 0 0 0 0 0 0 0 0 .4 0"/><feOffset dx="4.0" dy="4.0" in="blurOut2" result="blurOut3"/><feBlend in="SourceGraphic" in2="blurOut3" mode="normal"/></filter></defs><g><!--MD5=[1b52a8b596ce08ae40bcbd3f2e5d601e]
class InfluxDB--><rect codeLine="1" fill="#FEFECE" filter="url(#ftzg4333oh19c)" height="150.4375" id="InfluxDB" style="stroke: #A80036; stroke-width: 1.5;" width="388" x="7" y="7"/><ellipse cx="172.75" cy="23" fill="#ADD1B2" rx="11" ry="11" style="stroke: #A80036; stroke-width: 1.0;"/><path d="M175.0938,18.6719 C174.1563,18.2344 173.5625,18.0938 172.6875,18.0938 C170.0625,18.0938 168.0625,20.1719 168.0625,22.8906 L168.0625,24.0156 C168.0625,26.5938 170.1719,28.4844 173.0625,28.4844 C174.2813,28.4844 175.4375,28.1875 176.1875,27.6406 C176.7656,27.2344 177.0938,26.7813 177.0938,26.3906 C177.0938,25.9375 176.7031,25.5469 176.2344,25.5469 C176.0156,25.5469 175.8125,25.625 175.625,25.8125 C175.1719,26.2969 175.1719,26.2969 174.9844,26.3906 C174.5625,26.6563 173.875,26.7813 173.1094,26.7813 C171.0625,26.7813 169.7656,25.6875 169.7656,23.9844 L169.7656,22.8906 C169.7656,21.1094 171.0156,19.7969 172.75,19.7969 C173.3281,19.7969 173.9375,19.9531 174.4063,20.2031 C174.8906,20.4844 175.0625,20.7031 175.1563,21.1094 C175.2188,21.5156 175.25,21.6406 175.3906,21.7656 C175.5313,21.9063 175.7656,22.0156 175.9844,22.0156 C176.25,22.0156 176.5156,21.875 176.6875,21.6563 C176.7969,21.5 176.8281,21.3125 176.8281,20.8906 L176.8281,19.4688 C176.8281,19.0313 176.8125,18.9063 176.7188,18.75 C176.5625,18.4844 176.2813,18.3438 175.9844,18.3438 C175.6875,18.3438 175.4844,18.4375 175.2656,18.75 L175.0938,18.6719 Z "/><text fill="#000000" font-family="sans-serif" font-size="12" lengthAdjust="spacingAndGlyphs" textLength="48" x="193.25" y="27.1543">InfluxDB</text><line style="stroke: #A80036; stroke-width: 1.5;" x1="8" x2="394" y1="39" y2="39"/><ellipse cx="18" cy="50" fill="none" rx="3" ry="3" style="stroke: #038048; stroke-width: 1.0;"/><text fill="#000000" font-family="sans-serif" font-size="11" lengthAdjust="spacingAndGlyphs" textLength="174" x="27" y="53.2104">currentSewrverAddress: String</text><line style="stroke: #A80036; stroke-width: 1.5;" x1="8" x2="394" y1="59.8047" y2="59.8047"/><ellipse cx="18" cy="70.8047" fill="#84BE84" rx="3" ry="3" style="stroke: #038048; stroke-width: 1.0;"/><text fill="#000000" font-family="sans-serif" font-size="11" lengthAdjust="spacingAndGlyphs" textLength="269" x="27" y="74.0151">setCurrentServerAddress(address: String): void</text><ellipse cx="18" cy="83.6094" fill="#84BE84" rx="3" ry="3" style="stroke: #038048; stroke-width: 1.0;"/><text fill="#000000" font-family="sans-serif" font-size="11" lengthAdjust="spacingAndGlyphs" textLength="136" x="27" y="86.8198">getRamUsage(): Double</text><ellipse cx="18" cy="96.4141" fill="#84BE84" rx="3" ry="3" style="stroke: #038048; stroke-width: 1.0;"/><text fill="#000000" font-family="sans-serif" font-size="11" lengthAdjust="spacingAndGlyphs" textLength="89" x="27" y="99.6245">getUptime(): int</text><ellipse cx="18" cy="109.2188" fill="#84BE84" rx="3" ry="3" style="stroke: #038048; stroke-width: 1.0;"/><text fill="#000000" font-family="sans-serif" font-size="11" lengthAdjust="spacingAndGlyphs" textLength="133" x="27" y="112.4292">getCPUUsage(): Double</text><ellipse cx="18" cy="122.0234" fill="#84BE84" rx="3" ry="3" style="stroke: #038048; stroke-width: 1.0;"/><text fill="#000000" font-family="sans-serif" font-size="11" lengthAdjust="spacingAndGlyphs" textLength="362" x="27" y="125.2339">doInfluxRequest(parameters; Map&lt;String, String&gt;): StringBuffer</text><ellipse cx="18" cy="134.8281" fill="#84BE84" rx="3" ry="3" style="stroke: #038048; stroke-width: 1.0;"/><text fill="#000000" font-family="sans-serif" font-size="11" lengthAdjust="spacingAndGlyphs" textLength="211" x="27" y="138.0386">getCPUOverTime(): UsageWithTime[]</text><ellipse cx="18" cy="147.6328" fill="#84BE84" rx="3" ry="3" style="stroke: #038048; stroke-width: 1.0;"/><text fill="#000000" font-family="sans-serif" font-size="11" lengthAdjust="spacingAndGlyphs" textLength="213" x="27" y="150.8433">getRAMOverTime(): UsageWithTime[]</text><!--MD5=[06b010a61a12e7f48f8454a014a6da06]
@startuml
class InfluxDB {
    + currentSewrverAddress: String

    + setCurrentServerAddress(address: String): void
    + getRamUsage(): Double
    + getUptime(): int
    + getCPUUsage(): Double
    + doInfluxRequest(parameters; Map<String, String>): StringBuffer
    + getCPUOverTime(): UsageWithTime[]
    + getRAMOverTime(): UsageWithTime[]
}
@enduml

PlantUML version 1.2020.17beta5(Unknown compile time)
(GPL source distribution)
Java Runtime: Java(TM) SE Runtime Environment
JVM: Java HotSpot(TM) 64-Bit Server VM
Default Encoding: UTF-8
Language: en
Country: US
--></g></svg>