<?xml version="1.0" encoding="UTF-8" standalone="no"?><svg xmlns="http://www.w3.org/2000/svg" xmlns:xlink="http://www.w3.org/1999/xlink" contentScriptType="application/ecmascript" contentStyleType="text/css" height="112px" preserveAspectRatio="none" style="width:264px;height:112px;" version="1.1" viewBox="0 0 264 112" width="264px" zoomAndPan="magnify"><defs><filter height="300%" id="f1j1usfs4g51k6" width="300%" x="-1" y="-1"><feGaussianBlur result="blurOut" stdDeviation="2.0"/><feColorMatrix in="blurOut" result="blurOut2" type="matrix" values="0 0 0 0 0 0 0 0 0 0 0 0 0 0 0 0 0 0 .4 0"/><feOffset dx="4.0" dy="4.0" in="blurOut2" result="blurOut3"/><feBlend in="SourceGraphic" in2="blurOut3" mode="normal"/></filter></defs><g><!--MD5=[c60af77fe5573b84a4aa4bce89659574]
class Server--><rect codeLine="1" fill="#FEFECE" filter="url(#f1j1usfs4g51k6)" height="86.4141" id="Server" style="stroke: #A80036; stroke-width: 1.5;" width="238" x="7" y="7"/><ellipse cx="101.25" cy="23" fill="#ADD1B2" rx="11" ry="11" style="stroke: #A80036; stroke-width: 1.0;"/><path d="M103.5938,18.6719 C102.6563,18.2344 102.0625,18.0938 101.1875,18.0938 C98.5625,18.0938 96.5625,20.1719 96.5625,22.8906 L96.5625,24.0156 C96.5625,26.5938 98.6719,28.4844 101.5625,28.4844 C102.7813,28.4844 103.9375,28.1875 104.6875,27.6406 C105.2656,27.2344 105.5938,26.7813 105.5938,26.3906 C105.5938,25.9375 105.2031,25.5469 104.7344,25.5469 C104.5156,25.5469 104.3125,25.625 104.125,25.8125 C103.6719,26.2969 103.6719,26.2969 103.4844,26.3906 C103.0625,26.6563 102.375,26.7813 101.6094,26.7813 C99.5625,26.7813 98.2656,25.6875 98.2656,23.9844 L98.2656,22.8906 C98.2656,21.1094 99.5156,19.7969 101.25,19.7969 C101.8281,19.7969 102.4375,19.9531 102.9063,20.2031 C103.3906,20.4844 103.5625,20.7031 103.6563,21.1094 C103.7188,21.5156 103.75,21.6406 103.8906,21.7656 C104.0313,21.9063 104.2656,22.0156 104.4844,22.0156 C104.75,22.0156 105.0156,21.875 105.1875,21.6563 C105.2969,21.5 105.3281,21.3125 105.3281,20.8906 L105.3281,19.4688 C105.3281,19.0313 105.3125,18.9063 105.2188,18.75 C105.0625,18.4844 104.7813,18.3438 104.4844,18.3438 C104.1875,18.3438 103.9844,18.4375 103.7656,18.75 L103.5938,18.6719 Z "/><text fill="#000000" font-family="sans-serif" font-size="12" lengthAdjust="spacingAndGlyphs" textLength="41" x="121.75" y="27.1543">Server</text><line style="stroke: #A80036; stroke-width: 1.5;" x1="8" x2="244" y1="39" y2="39"/><ellipse cx="18" cy="50" fill="none" rx="3" ry="3" style="stroke: #038048; stroke-width: 1.0;"/><text fill="#000000" font-family="sans-serif" font-size="11" lengthAdjust="spacingAndGlyphs" textLength="86" x="27" y="53.2104">Address: String</text><ellipse cx="18" cy="62.8047" fill="none" rx="3" ry="3" style="stroke: #038048; stroke-width: 1.0;"/><text fill="#000000" font-family="sans-serif" font-size="11" lengthAdjust="spacingAndGlyphs" textLength="74" x="27" y="66.0151">Name: String</text><line style="stroke: #A80036; stroke-width: 1.5;" x1="8" x2="244" y1="72.6094" y2="72.6094"/><ellipse cx="18" cy="83.6094" fill="#84BE84" rx="3" ry="3" style="stroke: #038048; stroke-width: 1.0;"/><text fill="#000000" font-family="sans-serif" font-size="11" lengthAdjust="spacingAndGlyphs" textLength="212" x="27" y="86.8198">Server(name: String, address: String)</text><!--MD5=[8c1bf6c3c5e7c8a8034e18ba7b13b6eb]
@startuml
class Server {
    + Address: String
    + Name: String

    + Server(name: String, address: String)
}
@enduml

PlantUML version 1.2020.17beta5(Unknown compile time)
(GPL source distribution)
Java Runtime: Java(TM) SE Runtime Environment
JVM: Java HotSpot(TM) 64-Bit Server VM
Default Encoding: UTF-8
Language: en
Country: US
--></g></svg>