<?xml version="1.0" encoding="UTF-8" standalone="no"?><svg xmlns="http://www.w3.org/2000/svg" xmlns:xlink="http://www.w3.org/1999/xlink" contentScriptType="application/ecmascript" contentStyleType="text/css" height="374px" preserveAspectRatio="none" style="width:343px;height:374px;" version="1.1" viewBox="0 0 343 374" width="343px" zoomAndPan="magnify"><defs><filter height="300%" id="fb3gps99h92rh" width="300%" x="-1" y="-1"><feGaussianBlur result="blurOut" stdDeviation="2.0"/><feColorMatrix in="blurOut" result="blurOut2" type="matrix" values="0 0 0 0 0 0 0 0 0 0 0 0 0 0 0 0 0 0 .4 0"/><feOffset dx="4.0" dy="4.0" in="blurOut2" result="blurOut3"/><feBlend in="SourceGraphic" in2="blurOut3" mode="normal"/></filter></defs><g><!--MD5=[5fc9b60f5d5c64ad0df8704dae8d48bb]
class Utilities--><rect codeLine="1" fill="#FEFECE" filter="url(#fb3gps99h92rh)" height="240.0703" id="Utilities" style="stroke: #A80036; stroke-width: 1.5;" width="317" x="7" y="115"/><ellipse cx="139.25" cy="131" fill="#ADD1B2" rx="11" ry="11" style="stroke: #A80036; stroke-width: 1.0;"/><path d="M141.5938,126.6719 C140.6563,126.2344 140.0625,126.0938 139.1875,126.0938 C136.5625,126.0938 134.5625,128.1719 134.5625,130.8906 L134.5625,132.0156 C134.5625,134.5938 136.6719,136.4844 139.5625,136.4844 C140.7813,136.4844 141.9375,136.1875 142.6875,135.6406 C143.2656,135.2344 143.5938,134.7813 143.5938,134.3906 C143.5938,133.9375 143.2031,133.5469 142.7344,133.5469 C142.5156,133.5469 142.3125,133.625 142.125,133.8125 C141.6719,134.2969 141.6719,134.2969 141.4844,134.3906 C141.0625,134.6563 140.375,134.7813 139.6094,134.7813 C137.5625,134.7813 136.2656,133.6875 136.2656,131.9844 L136.2656,130.8906 C136.2656,129.1094 137.5156,127.7969 139.25,127.7969 C139.8281,127.7969 140.4375,127.9531 140.9063,128.2031 C141.3906,128.4844 141.5625,128.7031 141.6563,129.1094 C141.7188,129.5156 141.75,129.6406 141.8906,129.7656 C142.0313,129.9063 142.2656,130.0156 142.4844,130.0156 C142.75,130.0156 143.0156,129.875 143.1875,129.6563 C143.2969,129.5 143.3281,129.3125 143.3281,128.8906 L143.3281,127.4688 C143.3281,127.0313 143.3125,126.9063 143.2188,126.75 C143.0625,126.4844 142.7813,126.3438 142.4844,126.3438 C142.1875,126.3438 141.9844,126.4375 141.7656,126.75 L141.5938,126.6719 Z "/><text fill="#000000" font-family="sans-serif" font-size="12" lengthAdjust="spacingAndGlyphs" textLength="44" x="159.75" y="135.1543">Utilities</text><line style="stroke: #A80036; stroke-width: 1.5;" x1="8" x2="323" y1="147" y2="147"/><line style="stroke: #A80036; stroke-width: 1.5;" x1="8" x2="323" y1="155" y2="155"/><ellipse cx="18" cy="166" fill="#84BE84" rx="3" ry="3" style="stroke: #038048; stroke-width: 1.0;"/><text fill="#000000" font-family="sans-serif" font-size="11" lengthAdjust="spacingAndGlyphs" textLength="134" x="27" y="169.2104">(static) SERVERS: String</text><ellipse cx="18" cy="178.8047" fill="#84BE84" rx="3" ry="3" style="stroke: #038048; stroke-width: 1.0;"/><text fill="#000000" font-family="sans-serif" font-size="11" lengthAdjust="spacingAndGlyphs" textLength="112" x="27" y="182.0151">(static) USER: String</text><rect fill="#F24D5C" height="6" style="stroke: #C82930; stroke-width: 1.0;" width="6" x="15" y="188.6094"/><text fill="#000000" font-family="sans-serif" font-size="11" lengthAdjust="spacingAndGlyphs" textLength="198" x="27" y="194.8198">(static) servers: ArrayList&lt;Server&gt;</text><rect fill="#F24D5C" height="6" style="stroke: #C82930; stroke-width: 1.0;" width="6" x="15" y="201.4141"/><text fill="#000000" font-family="sans-serif" font-size="11" lengthAdjust="spacingAndGlyphs" textLength="184" x="27" y="207.6245">(static) selectedServerIndex: int</text><ellipse cx="18" cy="217.2188" fill="#84BE84" rx="3" ry="3" style="stroke: #038048; stroke-width: 1.0;"/><text fill="#000000" font-family="sans-serif" font-size="11" lengthAdjust="spacingAndGlyphs" textLength="267" x="27" y="220.4292">(static) sharedPreferences: SharedPreferences</text><text fill="#000000" font-family="sans-serif" font-size="11" lengthAdjust="spacingAndGlyphs" textLength="0" x="31" y="233.2339"/><ellipse cx="18" cy="242.8281" fill="#84BE84" rx="3" ry="3" style="stroke: #038048; stroke-width: 1.0;"/><text fill="#000000" font-family="sans-serif" font-size="11" lengthAdjust="spacingAndGlyphs" textLength="217" x="27" y="246.0386">(static) getAllServerAsString(): String[]</text><ellipse cx="18" cy="255.6328" fill="#84BE84" rx="3" ry="3" style="stroke: #038048; stroke-width: 1.0;"/><text fill="#000000" font-family="sans-serif" font-size="11" lengthAdjust="spacingAndGlyphs" textLength="224" x="27" y="258.8433">(static) addServer(server: Server): void</text><ellipse cx="18" cy="268.4375" fill="#84BE84" rx="3" ry="3" style="stroke: #038048; stroke-width: 1.0;"/><text fill="#000000" font-family="sans-serif" font-size="11" lengthAdjust="spacingAndGlyphs" textLength="203" x="27" y="271.6479">(static) getCurrentServerIndex(): int</text><ellipse cx="18" cy="281.2422" fill="#84BE84" rx="3" ry="3" style="stroke: #038048; stroke-width: 1.0;"/><text fill="#000000" font-family="sans-serif" font-size="11" lengthAdjust="spacingAndGlyphs" textLength="270" x="27" y="284.4526">(static) setCurrentServer(serverIndex: int): void</text><ellipse cx="18" cy="294.0469" fill="#84BE84" rx="3" ry="3" style="stroke: #038048; stroke-width: 1.0;"/><text fill="#000000" font-family="sans-serif" font-size="11" lengthAdjust="spacingAndGlyphs" textLength="196" x="27" y="297.2573">(static) getCurrentServer(): Server</text><ellipse cx="18" cy="306.8516" fill="#84BE84" rx="3" ry="3" style="stroke: #038048; stroke-width: 1.0;"/><text fill="#000000" font-family="sans-serif" font-size="11" lengthAdjust="spacingAndGlyphs" textLength="248" x="27" y="310.062">(static) deleteServer(serverIndex: int): void</text><ellipse cx="18" cy="319.6563" fill="#84BE84" rx="3" ry="3" style="stroke: #038048; stroke-width: 1.0;"/><text fill="#000000" font-family="sans-serif" font-size="11" lengthAdjust="spacingAndGlyphs" textLength="291" x="27" y="322.8667">(static) editServer(serverIndex: int, server: Server)</text><ellipse cx="18" cy="332.4609" fill="#84BE84" rx="3" ry="3" style="stroke: #038048; stroke-width: 1.0;"/><text fill="#000000" font-family="sans-serif" font-size="11" lengthAdjust="spacingAndGlyphs" textLength="136" x="27" y="335.6714">(static) saveData(): void</text><ellipse cx="18" cy="345.2656" fill="#84BE84" rx="3" ry="3" style="stroke: #038048; stroke-width: 1.0;"/><text fill="#000000" font-family="sans-serif" font-size="11" lengthAdjust="spacingAndGlyphs" textLength="132" x="27" y="348.4761">(static) loadData(): void</text><!--MD5=[0b4e4b4980470ea387cc45de9bd14b5b]
class Application--><rect fill="#FEFECE" filter="url(#fb3gps99h92rh)" height="48" id="Application" style="stroke: #A80036; stroke-width: 1.5;" width="98" x="116.5" y="7"/><ellipse cx="131.5" cy="23" fill="#ADD1B2" rx="11" ry="11" style="stroke: #A80036; stroke-width: 1.0;"/><path d="M133.8438,18.6719 C132.9063,18.2344 132.3125,18.0938 131.4375,18.0938 C128.8125,18.0938 126.8125,20.1719 126.8125,22.8906 L126.8125,24.0156 C126.8125,26.5938 128.9219,28.4844 131.8125,28.4844 C133.0313,28.4844 134.1875,28.1875 134.9375,27.6406 C135.5156,27.2344 135.8438,26.7813 135.8438,26.3906 C135.8438,25.9375 135.4531,25.5469 134.9844,25.5469 C134.7656,25.5469 134.5625,25.625 134.375,25.8125 C133.9219,26.2969 133.9219,26.2969 133.7344,26.3906 C133.3125,26.6563 132.625,26.7813 131.8594,26.7813 C129.8125,26.7813 128.5156,25.6875 128.5156,23.9844 L128.5156,22.8906 C128.5156,21.1094 129.7656,19.7969 131.5,19.7969 C132.0781,19.7969 132.6875,19.9531 133.1563,20.2031 C133.6406,20.4844 133.8125,20.7031 133.9063,21.1094 C133.9688,21.5156 134,21.6406 134.1406,21.7656 C134.2813,21.9063 134.5156,22.0156 134.7344,22.0156 C135,22.0156 135.2656,21.875 135.4375,21.6563 C135.5469,21.5 135.5781,21.3125 135.5781,20.8906 L135.5781,19.4688 C135.5781,19.0313 135.5625,18.9063 135.4688,18.75 C135.3125,18.4844 135.0313,18.3438 134.7344,18.3438 C134.4375,18.3438 134.2344,18.4375 134.0156,18.75 L133.8438,18.6719 Z "/><text fill="#000000" font-family="sans-serif" font-size="12" lengthAdjust="spacingAndGlyphs" textLength="66" x="145.5" y="27.1543">Application</text><line style="stroke: #A80036; stroke-width: 1.5;" x1="117.5" x2="213.5" y1="39" y2="39"/><line style="stroke: #A80036; stroke-width: 1.5;" x1="117.5" x2="213.5" y1="47" y2="47"/><!--MD5=[c63016183f400c8e4543eefa619bbf98]
reverse link Application to Utilities--><path d="M165.5,75.188 C165.5,87.091 165.5,100.61 165.5,114.616 " fill="none" id="Application-backto-Utilities" style="stroke: #A80036; stroke-width: 1.0;"/><polygon fill="none" points="158.5,75.172,165.5,55.172,172.5,75.172,158.5,75.172" style="stroke: #A80036; stroke-width: 1.0;"/><!--MD5=[fe4bd4119a21333a2e17b375f3cff496]
@startuml
class Utilities extends Application {
    + (static) SERVERS: String
    + (static) USER: String
    - (static) servers: ArrayList<Server>
    - (static) selectedServerIndex: int
    + (static) sharedPreferences: SharedPreferences

    + (static) getAllServerAsString(): String[]
    + (static) addServer(server: Server): void
    + (static) getCurrentServerIndex(): int
    + (static) setCurrentServer(serverIndex: int): void
    + (static) getCurrentServer(): Server
    + (static) deleteServer(serverIndex: int): void
    + (static) editServer(serverIndex: int, server: Server)
    + (static) saveData(): void
    + (static) loadData(): void
}
@enduml

PlantUML version 1.2020.17beta5(Unknown compile time)
(GPL source distribution)
Java Runtime: Java(TM) SE Runtime Environment
JVM: Java HotSpot(TM) 64-Bit Server VM
Default Encoding: UTF-8
Language: en
Country: US
--></g></svg>