<?xml version="1.0" encoding="UTF-8" standalone="no"?><svg xmlns="http://www.w3.org/2000/svg" xmlns:xlink="http://www.w3.org/1999/xlink" contentScriptType="application/ecmascript" contentStyleType="text/css" height="341px" preserveAspectRatio="none" style="width:1763px;height:341px;" version="1.1" viewBox="0 0 1763 341" width="1763px" zoomAndPan="magnify"><defs><filter height="300%" id="fsj4j2i9e8ksk" width="300%" x="-1" y="-1"><feGaussianBlur result="blurOut" stdDeviation="2.0"/><feColorMatrix in="blurOut" result="blurOut2" type="matrix" values="0 0 0 0 0 0 0 0 0 0 0 0 0 0 0 0 0 0 .4 0"/><feOffset dx="4.0" dy="4.0" in="blurOut2" result="blurOut3"/><feBlend in="SourceGraphic" in2="blurOut3" mode="normal"/></filter></defs><g><!--MD5=[1b52a8b596ce08ae40bcbd3f2e5d601e]
class InfluxDB--><rect fill="#FEFECE" filter="url(#fsj4j2i9e8ksk)" height="99.2188" id="InfluxDB" style="stroke: #A80036; stroke-width: 1.5;" width="296" x="25" y="27.5"/><ellipse cx="139.25" cy="43.5" fill="#ADD1B2" rx="11" ry="11" style="stroke: #A80036; stroke-width: 1.0;"/><path d="M141.5938,39.1719 C140.6563,38.7344 140.0625,38.5938 139.1875,38.5938 C136.5625,38.5938 134.5625,40.6719 134.5625,43.3906 L134.5625,44.5156 C134.5625,47.0938 136.6719,48.9844 139.5625,48.9844 C140.7813,48.9844 141.9375,48.6875 142.6875,48.1406 C143.2656,47.7344 143.5938,47.2813 143.5938,46.8906 C143.5938,46.4375 143.2031,46.0469 142.7344,46.0469 C142.5156,46.0469 142.3125,46.125 142.125,46.3125 C141.6719,46.7969 141.6719,46.7969 141.4844,46.8906 C141.0625,47.1563 140.375,47.2813 139.6094,47.2813 C137.5625,47.2813 136.2656,46.1875 136.2656,44.4844 L136.2656,43.3906 C136.2656,41.6094 137.5156,40.2969 139.25,40.2969 C139.8281,40.2969 140.4375,40.4531 140.9063,40.7031 C141.3906,40.9844 141.5625,41.2031 141.6563,41.6094 C141.7188,42.0156 141.75,42.1406 141.8906,42.2656 C142.0313,42.4063 142.2656,42.5156 142.4844,42.5156 C142.75,42.5156 143.0156,42.375 143.1875,42.1563 C143.2969,42 143.3281,41.8125 143.3281,41.3906 L143.3281,39.9688 C143.3281,39.5313 143.3125,39.4063 143.2188,39.25 C143.0625,38.9844 142.7813,38.8438 142.4844,38.8438 C142.1875,38.8438 141.9844,38.9375 141.7656,39.25 L141.5938,39.1719 Z "/><ellipse cx="164.75" cy="43" fill="#84BE84" rx="3" ry="3" style="stroke: #038048; stroke-width: 1.0;"/><text fill="#000000" font-family="sans-serif" font-size="12" lengthAdjust="spacingAndGlyphs" textLength="48" x="170.75" y="47.6543">InfluxDB</text><line style="stroke: #A80036; stroke-width: 1.5;" x1="26" x2="320" y1="59.5" y2="59.5"/><ellipse cx="36" cy="70.5" fill="none" rx="3" ry="3" style="stroke: #038048; stroke-width: 1.0;"/><text fill="#000000" font-family="sans-serif" font-size="11" lengthAdjust="spacingAndGlyphs" textLength="162" x="45" y="73.7104">String currentServerAddress</text><line style="stroke: #A80036; stroke-width: 1.5;" x1="26" x2="320" y1="80.3047" y2="80.3047"/><ellipse cx="36" cy="91.3047" fill="#84BE84" rx="3" ry="3" style="stroke: #038048; stroke-width: 1.0;"/><text fill="#000000" font-family="sans-serif" font-size="11" lengthAdjust="spacingAndGlyphs" textLength="270" x="45" y="94.5151">setCurrentServerAddress(String address) : void</text><ellipse cx="36" cy="104.1094" fill="#84BE84" rx="3" ry="3" style="stroke: #038048; stroke-width: 1.0;"/><text fill="#000000" font-family="sans-serif" font-size="11" lengthAdjust="spacingAndGlyphs" textLength="140" x="45" y="107.3198">getRamUsage() : Double</text><ellipse cx="36" cy="116.9141" fill="#84BE84" rx="3" ry="3" style="stroke: #038048; stroke-width: 1.0;"/><text fill="#000000" font-family="sans-serif" font-size="11" lengthAdjust="spacingAndGlyphs" textLength="137" x="45" y="120.1245">getCPUUsage() : Double</text><!--MD5=[5fc9b60f5d5c64ad0df8704dae8d48bb]
class Utilities--><rect fill="#FEFECE" filter="url(#fsj4j2i9e8ksk)" height="137.6328" id="Utilities" style="stroke: #A80036; stroke-width: 1.5;" width="258" x="356" y="8"/><ellipse cx="453.25" cy="24" fill="#ADD1B2" rx="11" ry="11" style="stroke: #A80036; stroke-width: 1.0;"/><path d="M455.5938,19.6719 C454.6563,19.2344 454.0625,19.0938 453.1875,19.0938 C450.5625,19.0938 448.5625,21.1719 448.5625,23.8906 L448.5625,25.0156 C448.5625,27.5938 450.6719,29.4844 453.5625,29.4844 C454.7813,29.4844 455.9375,29.1875 456.6875,28.6406 C457.2656,28.2344 457.5938,27.7813 457.5938,27.3906 C457.5938,26.9375 457.2031,26.5469 456.7344,26.5469 C456.5156,26.5469 456.3125,26.625 456.125,26.8125 C455.6719,27.2969 455.6719,27.2969 455.4844,27.3906 C455.0625,27.6563 454.375,27.7813 453.6094,27.7813 C451.5625,27.7813 450.2656,26.6875 450.2656,24.9844 L450.2656,23.8906 C450.2656,22.1094 451.5156,20.7969 453.25,20.7969 C453.8281,20.7969 454.4375,20.9531 454.9063,21.2031 C455.3906,21.4844 455.5625,21.7031 455.6563,22.1094 C455.7188,22.5156 455.75,22.6406 455.8906,22.7656 C456.0313,22.9063 456.2656,23.0156 456.4844,23.0156 C456.75,23.0156 457.0156,22.875 457.1875,22.6563 C457.2969,22.5 457.3281,22.3125 457.3281,21.8906 L457.3281,20.4688 C457.3281,20.0313 457.3125,19.9063 457.2188,19.75 C457.0625,19.4844 456.7813,19.3438 456.4844,19.3438 C456.1875,19.3438 455.9844,19.4375 455.7656,19.75 L455.5938,19.6719 Z "/><ellipse cx="478.75" cy="23.5" fill="#84BE84" rx="3" ry="3" style="stroke: #038048; stroke-width: 1.0;"/><text fill="#000000" font-family="sans-serif" font-size="12" lengthAdjust="spacingAndGlyphs" textLength="44" x="484.75" y="28.1543">Utilities</text><line style="stroke: #A80036; stroke-width: 1.5;" x1="357" x2="613" y1="40" y2="40"/><rect fill="none" height="6" style="stroke: #C82930; stroke-width: 1.0;" width="6" x="364" y="48"/><text fill="#000000" font-family="sans-serif" font-size="11" lengthAdjust="spacingAndGlyphs" text-decoration="underline" textLength="153" x="376" y="54.2104">ArrayList&lt;Server&gt; servers</text><rect fill="none" height="6" style="stroke: #C82930; stroke-width: 1.0;" width="6" x="364" y="60.8047"/><text fill="#000000" font-family="sans-serif" font-size="11" lengthAdjust="spacingAndGlyphs" text-decoration="underline" textLength="139" x="376" y="67.0151">int selectedServerIndex</text><line style="stroke: #A80036; stroke-width: 1.5;" x1="357" x2="613" y1="73.6094" y2="73.6094"/><ellipse cx="367" cy="84.6094" fill="#84BE84" rx="3" ry="3" style="stroke: #038048; stroke-width: 1.0;"/><text fill="#000000" font-family="sans-serif" font-size="11" lengthAdjust="spacingAndGlyphs" text-decoration="underline" textLength="185" x="376" y="87.8198">getAllServersAsString() : String[]</text><ellipse cx="367" cy="97.4141" fill="#84BE84" rx="3" ry="3" style="stroke: #038048; stroke-width: 1.0;"/><text fill="#000000" font-family="sans-serif" font-size="11" lengthAdjust="spacingAndGlyphs" text-decoration="underline" textLength="186" x="376" y="100.6245">addServer(server: Server) : void</text><ellipse cx="367" cy="110.2188" fill="#84BE84" rx="3" ry="3" style="stroke: #038048; stroke-width: 1.0;"/><text fill="#000000" font-family="sans-serif" font-size="11" lengthAdjust="spacingAndGlyphs" text-decoration="underline" textLength="165" x="376" y="113.4292">getCurrentServerIndex() : int</text><ellipse cx="367" cy="123.0234" fill="#84BE84" rx="3" ry="3" style="stroke: #038048; stroke-width: 1.0;"/><text fill="#000000" font-family="sans-serif" font-size="11" lengthAdjust="spacingAndGlyphs" text-decoration="underline" textLength="232" x="376" y="126.2339">setCurrentServer(serverIndex: int) : void</text><ellipse cx="367" cy="135.8281" fill="#84BE84" rx="3" ry="3" style="stroke: #038048; stroke-width: 1.0;"/><text fill="#000000" font-family="sans-serif" font-size="11" lengthAdjust="spacingAndGlyphs" text-decoration="underline" textLength="158" x="376" y="139.0386">getCurrentServer() : Server</text><!--MD5=[5db00888549904919e3a09c35d77129e]
class MainActivity--><rect fill="#FEFECE" filter="url(#fsj4j2i9e8ksk)" height="99.2188" id="MainActivity" style="stroke: #A80036; stroke-width: 1.5;" width="276" x="648" y="219"/><ellipse cx="741.25" cy="235" fill="#ADD1B2" rx="11" ry="11" style="stroke: #A80036; stroke-width: 1.0;"/><path d="M743.5938,230.6719 C742.6563,230.2344 742.0625,230.0938 741.1875,230.0938 C738.5625,230.0938 736.5625,232.1719 736.5625,234.8906 L736.5625,236.0156 C736.5625,238.5938 738.6719,240.4844 741.5625,240.4844 C742.7813,240.4844 743.9375,240.1875 744.6875,239.6406 C745.2656,239.2344 745.5938,238.7813 745.5938,238.3906 C745.5938,237.9375 745.2031,237.5469 744.7344,237.5469 C744.5156,237.5469 744.3125,237.625 744.125,237.8125 C743.6719,238.2969 743.6719,238.2969 743.4844,238.3906 C743.0625,238.6563 742.375,238.7813 741.6094,238.7813 C739.5625,238.7813 738.2656,237.6875 738.2656,235.9844 L738.2656,234.8906 C738.2656,233.1094 739.5156,231.7969 741.25,231.7969 C741.8281,231.7969 742.4375,231.9531 742.9063,232.2031 C743.3906,232.4844 743.5625,232.7031 743.6563,233.1094 C743.7188,233.5156 743.75,233.6406 743.8906,233.7656 C744.0313,233.9063 744.2656,234.0156 744.4844,234.0156 C744.75,234.0156 745.0156,233.875 745.1875,233.6563 C745.2969,233.5 745.3281,233.3125 745.3281,232.8906 L745.3281,231.4688 C745.3281,231.0313 745.3125,230.9063 745.2188,230.75 C745.0625,230.4844 744.7813,230.3438 744.4844,230.3438 C744.1875,230.3438 743.9844,230.4375 743.7656,230.75 L743.5938,230.6719 Z "/><ellipse cx="766.75" cy="234.5" fill="#84BE84" rx="3" ry="3" style="stroke: #038048; stroke-width: 1.0;"/><text fill="#000000" font-family="sans-serif" font-size="12" lengthAdjust="spacingAndGlyphs" textLength="70" x="772.75" y="239.1543">MainActivity</text><line style="stroke: #A80036; stroke-width: 1.5;" x1="649" x2="923" y1="251" y2="251"/><line style="stroke: #A80036; stroke-width: 1.5;" x1="649" x2="923" y1="259" y2="259"/><polygon fill="#FFFF44" points="659,265,663,269,659,273,655,269" style="stroke: #B38D22; stroke-width: 1.0;"/><text fill="#000000" font-family="sans-serif" font-size="11" lengthAdjust="spacingAndGlyphs" textLength="250" x="668" y="273.2104">onCreate(saveInstanceState: Bundle) : void</text><ellipse cx="659" cy="282.8047" fill="#84BE84" rx="3" ry="3" style="stroke: #038048; stroke-width: 1.0;"/><text fill="#000000" font-family="sans-serif" font-size="11" lengthAdjust="spacingAndGlyphs" textLength="205" x="668" y="286.0151">selectServerClick(view: View) : void</text><ellipse cx="659" cy="295.6094" fill="#84BE84" rx="3" ry="3" style="stroke: #038048; stroke-width: 1.0;"/><text fill="#000000" font-family="sans-serif" font-size="11" lengthAdjust="spacingAndGlyphs" textLength="191" x="668" y="298.8198">addServerClick(view: View) : void</text><ellipse cx="659" cy="308.4141" fill="#84BE84" rx="3" ry="3" style="stroke: #038048; stroke-width: 1.0;"/><text fill="#000000" font-family="sans-serif" font-size="11" lengthAdjust="spacingAndGlyphs" textLength="180" x="668" y="311.6245">statisticsClick(view: View) : void</text><!--MD5=[5839a728ddc01d792fb5317e858e9ae0]
class AppCompatActivity--><rect fill="#FEFECE" filter="url(#fsj4j2i9e8ksk)" height="48" id="AppCompatActivity" style="stroke: #A80036; stroke-width: 1.5;" width="145" x="1180.5" y="53"/><ellipse cx="1195.5" cy="69" fill="#ADD1B2" rx="11" ry="11" style="stroke: #A80036; stroke-width: 1.0;"/><path d="M1197.8438,64.6719 C1196.9063,64.2344 1196.3125,64.0938 1195.4375,64.0938 C1192.8125,64.0938 1190.8125,66.1719 1190.8125,68.8906 L1190.8125,70.0156 C1190.8125,72.5938 1192.9219,74.4844 1195.8125,74.4844 C1197.0313,74.4844 1198.1875,74.1875 1198.9375,73.6406 C1199.5156,73.2344 1199.8438,72.7813 1199.8438,72.3906 C1199.8438,71.9375 1199.4531,71.5469 1198.9844,71.5469 C1198.7656,71.5469 1198.5625,71.625 1198.375,71.8125 C1197.9219,72.2969 1197.9219,72.2969 1197.7344,72.3906 C1197.3125,72.6563 1196.625,72.7813 1195.8594,72.7813 C1193.8125,72.7813 1192.5156,71.6875 1192.5156,69.9844 L1192.5156,68.8906 C1192.5156,67.1094 1193.7656,65.7969 1195.5,65.7969 C1196.0781,65.7969 1196.6875,65.9531 1197.1563,66.2031 C1197.6406,66.4844 1197.8125,66.7031 1197.9063,67.1094 C1197.9688,67.5156 1198,67.6406 1198.1406,67.7656 C1198.2813,67.9063 1198.5156,68.0156 1198.7344,68.0156 C1199,68.0156 1199.2656,67.875 1199.4375,67.6563 C1199.5469,67.5 1199.5781,67.3125 1199.5781,66.8906 L1199.5781,65.4688 C1199.5781,65.0313 1199.5625,64.9063 1199.4688,64.75 C1199.3125,64.4844 1199.0313,64.3438 1198.7344,64.3438 C1198.4375,64.3438 1198.2344,64.4375 1198.0156,64.75 L1197.8438,64.6719 Z "/><text fill="#000000" font-family="sans-serif" font-size="12" lengthAdjust="spacingAndGlyphs" textLength="113" x="1209.5" y="73.1543">AppCompatActivity</text><line style="stroke: #A80036; stroke-width: 1.5;" x1="1181.5" x2="1324.5" y1="85" y2="85"/><line style="stroke: #A80036; stroke-width: 1.5;" x1="1181.5" x2="1324.5" y1="93" y2="93"/><!--MD5=[6f93c78212a12a5538d1a85c08ed5c78]
class AddServerActivity--><rect fill="#FEFECE" filter="url(#fsj4j2i9e8ksk)" height="99.2188" id="AddServerActivity" style="stroke: #A80036; stroke-width: 1.5;" width="276" x="959" y="219"/><ellipse cx="1033.25" cy="235" fill="#ADD1B2" rx="11" ry="11" style="stroke: #A80036; stroke-width: 1.0;"/><path d="M1035.5938,230.6719 C1034.6563,230.2344 1034.0625,230.0938 1033.1875,230.0938 C1030.5625,230.0938 1028.5625,232.1719 1028.5625,234.8906 L1028.5625,236.0156 C1028.5625,238.5938 1030.6719,240.4844 1033.5625,240.4844 C1034.7813,240.4844 1035.9375,240.1875 1036.6875,239.6406 C1037.2656,239.2344 1037.5938,238.7813 1037.5938,238.3906 C1037.5938,237.9375 1037.2031,237.5469 1036.7344,237.5469 C1036.5156,237.5469 1036.3125,237.625 1036.125,237.8125 C1035.6719,238.2969 1035.6719,238.2969 1035.4844,238.3906 C1035.0625,238.6563 1034.375,238.7813 1033.6094,238.7813 C1031.5625,238.7813 1030.2656,237.6875 1030.2656,235.9844 L1030.2656,234.8906 C1030.2656,233.1094 1031.5156,231.7969 1033.25,231.7969 C1033.8281,231.7969 1034.4375,231.9531 1034.9063,232.2031 C1035.3906,232.4844 1035.5625,232.7031 1035.6563,233.1094 C1035.7188,233.5156 1035.75,233.6406 1035.8906,233.7656 C1036.0313,233.9063 1036.2656,234.0156 1036.4844,234.0156 C1036.75,234.0156 1037.0156,233.875 1037.1875,233.6563 C1037.2969,233.5 1037.3281,233.3125 1037.3281,232.8906 L1037.3281,231.4688 C1037.3281,231.0313 1037.3125,230.9063 1037.2188,230.75 C1037.0625,230.4844 1036.7813,230.3438 1036.4844,230.3438 C1036.1875,230.3438 1035.9844,230.4375 1035.7656,230.75 L1035.5938,230.6719 Z "/><ellipse cx="1058.75" cy="234.5" fill="#84BE84" rx="3" ry="3" style="stroke: #038048; stroke-width: 1.0;"/><text fill="#000000" font-family="sans-serif" font-size="12" lengthAdjust="spacingAndGlyphs" textLength="108" x="1064.75" y="239.1543">AddServerActivity</text><line style="stroke: #A80036; stroke-width: 1.5;" x1="960" x2="1234" y1="251" y2="251"/><ellipse cx="970" cy="262" fill="none" rx="3" ry="3" style="stroke: #038048; stroke-width: 1.0;"/><text fill="#000000" font-family="sans-serif" font-size="11" lengthAdjust="spacingAndGlyphs" textLength="106" x="979" y="265.2104">addButton : Button</text><ellipse cx="970" cy="274.8047" fill="none" rx="3" ry="3" style="stroke: #038048; stroke-width: 1.0;"/><text fill="#000000" font-family="sans-serif" font-size="11" lengthAdjust="spacingAndGlyphs" textLength="112" x="979" y="278.0151">nameEdit : EditText</text><ellipse cx="970" cy="287.6094" fill="none" rx="3" ry="3" style="stroke: #038048; stroke-width: 1.0;"/><text fill="#000000" font-family="sans-serif" font-size="11" lengthAdjust="spacingAndGlyphs" textLength="124" x="979" y="290.8198">addressEdit : EditText</text><line style="stroke: #A80036; stroke-width: 1.5;" x1="960" x2="1234" y1="297.4141" y2="297.4141"/><polygon fill="#FFFF44" points="970,303.4141,974,307.4141,970,311.4141,966,307.4141" style="stroke: #B38D22; stroke-width: 1.0;"/><text fill="#000000" font-family="sans-serif" font-size="11" lengthAdjust="spacingAndGlyphs" textLength="250" x="979" y="311.6245">onCreate(saveInstanceState: Bundle) : void</text><!--MD5=[bea627b461d446525317890c371f4987]
class SelectServerActivity--><rect fill="#FEFECE" filter="url(#fsj4j2i9e8ksk)" height="60.8047" id="SelectServerActivity" style="stroke: #A80036; stroke-width: 1.5;" width="280" x="1270" y="238"/><ellipse cx="1339.25" cy="254" fill="#ADD1B2" rx="11" ry="11" style="stroke: #A80036; stroke-width: 1.0;"/><path d="M1341.5938,249.6719 C1340.6563,249.2344 1340.0625,249.0938 1339.1875,249.0938 C1336.5625,249.0938 1334.5625,251.1719 1334.5625,253.8906 L1334.5625,255.0156 C1334.5625,257.5938 1336.6719,259.4844 1339.5625,259.4844 C1340.7813,259.4844 1341.9375,259.1875 1342.6875,258.6406 C1343.2656,258.2344 1343.5938,257.7813 1343.5938,257.3906 C1343.5938,256.9375 1343.2031,256.5469 1342.7344,256.5469 C1342.5156,256.5469 1342.3125,256.625 1342.125,256.8125 C1341.6719,257.2969 1341.6719,257.2969 1341.4844,257.3906 C1341.0625,257.6563 1340.375,257.7813 1339.6094,257.7813 C1337.5625,257.7813 1336.2656,256.6875 1336.2656,254.9844 L1336.2656,253.8906 C1336.2656,252.1094 1337.5156,250.7969 1339.25,250.7969 C1339.8281,250.7969 1340.4375,250.9531 1340.9063,251.2031 C1341.3906,251.4844 1341.5625,251.7031 1341.6563,252.1094 C1341.7188,252.5156 1341.75,252.6406 1341.8906,252.7656 C1342.0313,252.9063 1342.2656,253.0156 1342.4844,253.0156 C1342.75,253.0156 1343.0156,252.875 1343.1875,252.6563 C1343.2969,252.5 1343.3281,252.3125 1343.3281,251.8906 L1343.3281,250.4688 C1343.3281,250.0313 1343.3125,249.9063 1343.2188,249.75 C1343.0625,249.4844 1342.7813,249.3438 1342.4844,249.3438 C1342.1875,249.3438 1341.9844,249.4375 1341.7656,249.75 L1341.5938,249.6719 Z "/><ellipse cx="1364.75" cy="253.5" fill="#84BE84" rx="3" ry="3" style="stroke: #038048; stroke-width: 1.0;"/><text fill="#000000" font-family="sans-serif" font-size="12" lengthAdjust="spacingAndGlyphs" textLength="122" x="1370.75" y="258.1543">SelectServerActivity</text><line style="stroke: #A80036; stroke-width: 1.5;" x1="1271" x2="1549" y1="270" y2="270"/><line style="stroke: #A80036; stroke-width: 1.5;" x1="1271" x2="1549" y1="278" y2="278"/><polygon fill="#FFFF44" points="1281,284,1285,288,1281,292,1277,288" style="stroke: #B38D22; stroke-width: 1.0;"/><text fill="#000000" font-family="sans-serif" font-size="11" lengthAdjust="spacingAndGlyphs" textLength="254" x="1290" y="292.2104">onCreate(saveInstanceState : Bundle) : void</text><!--MD5=[034303723d397e2a8848ac011102e9c1]
class SeeInfos--><rect fill="#FEFECE" filter="url(#fsj4j2i9e8ksk)" height="124.8281" id="SeeInfos" style="stroke: #A80036; stroke-width: 1.5;" width="167" x="1585.5" y="206"/><ellipse cx="1632.75" cy="222" fill="#ADD1B2" rx="11" ry="11" style="stroke: #A80036; stroke-width: 1.0;"/><path d="M1635.0938,217.6719 C1634.1563,217.2344 1633.5625,217.0938 1632.6875,217.0938 C1630.0625,217.0938 1628.0625,219.1719 1628.0625,221.8906 L1628.0625,223.0156 C1628.0625,225.5938 1630.1719,227.4844 1633.0625,227.4844 C1634.2813,227.4844 1635.4375,227.1875 1636.1875,226.6406 C1636.7656,226.2344 1637.0938,225.7813 1637.0938,225.3906 C1637.0938,224.9375 1636.7031,224.5469 1636.2344,224.5469 C1636.0156,224.5469 1635.8125,224.625 1635.625,224.8125 C1635.1719,225.2969 1635.1719,225.2969 1634.9844,225.3906 C1634.5625,225.6563 1633.875,225.7813 1633.1094,225.7813 C1631.0625,225.7813 1629.7656,224.6875 1629.7656,222.9844 L1629.7656,221.8906 C1629.7656,220.1094 1631.0156,218.7969 1632.75,218.7969 C1633.3281,218.7969 1633.9375,218.9531 1634.4063,219.2031 C1634.8906,219.4844 1635.0625,219.7031 1635.1563,220.1094 C1635.2188,220.5156 1635.25,220.6406 1635.3906,220.7656 C1635.5313,220.9063 1635.7656,221.0156 1635.9844,221.0156 C1636.25,221.0156 1636.5156,220.875 1636.6875,220.6563 C1636.7969,220.5 1636.8281,220.3125 1636.8281,219.8906 L1636.8281,218.4688 C1636.8281,218.0313 1636.8125,217.9063 1636.7188,217.75 C1636.5625,217.4844 1636.2813,217.3438 1635.9844,217.3438 C1635.6875,217.3438 1635.4844,217.4375 1635.2656,217.75 L1635.0938,217.6719 Z "/><ellipse cx="1658.25" cy="221.5" fill="#84BE84" rx="3" ry="3" style="stroke: #038048; stroke-width: 1.0;"/><text fill="#000000" font-family="sans-serif" font-size="12" lengthAdjust="spacingAndGlyphs" textLength="53" x="1664.25" y="226.1543">SeeInfos</text><line style="stroke: #A80036; stroke-width: 1.5;" x1="1586.5" x2="1751.5" y1="238" y2="238"/><ellipse cx="1596.5" cy="249" fill="none" rx="3" ry="3" style="stroke: #038048; stroke-width: 1.0;"/><text fill="#000000" font-family="sans-serif" font-size="11" lengthAdjust="spacingAndGlyphs" textLength="128" x="1605.5" y="252.2104">ram_usage : TextView</text><ellipse cx="1596.5" cy="261.8047" fill="none" rx="3" ry="3" style="stroke: #038048; stroke-width: 1.0;"/><text fill="#000000" font-family="sans-serif" font-size="11" lengthAdjust="spacingAndGlyphs" textLength="126" x="1605.5" y="265.0151">cpu_usage : TextView</text><ellipse cx="1596.5" cy="274.6094" fill="none" rx="3" ry="3" style="stroke: #038048; stroke-width: 1.0;"/><text fill="#000000" font-family="sans-serif" font-size="11" lengthAdjust="spacingAndGlyphs" textLength="141" x="1605.5" y="277.8198">server_name : TextView</text><ellipse cx="1596.5" cy="287.4141" fill="none" rx="3" ry="3" style="stroke: #038048; stroke-width: 1.0;"/><text fill="#000000" font-family="sans-serif" font-size="11" lengthAdjust="spacingAndGlyphs" textLength="87" x="1605.5" y="290.6245">server : Server</text><ellipse cx="1596.5" cy="300.2188" fill="none" rx="3" ry="3" style="stroke: #038048; stroke-width: 1.0;"/><text fill="#000000" font-family="sans-serif" font-size="11" lengthAdjust="spacingAndGlyphs" textLength="107" x="1605.5" y="303.4292">influxDB : InfluxDB</text><line style="stroke: #A80036; stroke-width: 1.5;" x1="1586.5" x2="1751.5" y1="310.0234" y2="310.0234"/><ellipse cx="1596.5" cy="321.0234" fill="#84BE84" rx="3" ry="3" style="stroke: #038048; stroke-width: 1.0;"/><text fill="#000000" font-family="sans-serif" font-size="11" lengthAdjust="spacingAndGlyphs" textLength="96" x="1605.5" y="324.2339">onCreate() : void</text><!--MD5=[6650f707d11c5149613305b5f3bbcb0e]
class ParameterStringBuilder--><rect fill="#FEFECE" filter="url(#fsj4j2i9e8ksk)" height="60.8047" id="ParameterStringBuilder" style="stroke: #A80036; stroke-width: 1.5;" width="334" x="6" y="238"/><ellipse cx="94.25" cy="254" fill="#ADD1B2" rx="11" ry="11" style="stroke: #A80036; stroke-width: 1.0;"/><path d="M96.5938,249.6719 C95.6563,249.2344 95.0625,249.0938 94.1875,249.0938 C91.5625,249.0938 89.5625,251.1719 89.5625,253.8906 L89.5625,255.0156 C89.5625,257.5938 91.6719,259.4844 94.5625,259.4844 C95.7813,259.4844 96.9375,259.1875 97.6875,258.6406 C98.2656,258.2344 98.5938,257.7813 98.5938,257.3906 C98.5938,256.9375 98.2031,256.5469 97.7344,256.5469 C97.5156,256.5469 97.3125,256.625 97.125,256.8125 C96.6719,257.2969 96.6719,257.2969 96.4844,257.3906 C96.0625,257.6563 95.375,257.7813 94.6094,257.7813 C92.5625,257.7813 91.2656,256.6875 91.2656,254.9844 L91.2656,253.8906 C91.2656,252.1094 92.5156,250.7969 94.25,250.7969 C94.8281,250.7969 95.4375,250.9531 95.9063,251.2031 C96.3906,251.4844 96.5625,251.7031 96.6563,252.1094 C96.7188,252.5156 96.75,252.6406 96.8906,252.7656 C97.0313,252.9063 97.2656,253.0156 97.4844,253.0156 C97.75,253.0156 98.0156,252.875 98.1875,252.6563 C98.2969,252.5 98.3281,252.3125 98.3281,251.8906 L98.3281,250.4688 C98.3281,250.0313 98.3125,249.9063 98.2188,249.75 C98.0625,249.4844 97.7813,249.3438 97.4844,249.3438 C97.1875,249.3438 96.9844,249.4375 96.7656,249.75 L96.5938,249.6719 Z "/><ellipse cx="119.75" cy="253.5" fill="#84BE84" rx="3" ry="3" style="stroke: #038048; stroke-width: 1.0;"/><text fill="#000000" font-family="sans-serif" font-size="12" lengthAdjust="spacingAndGlyphs" textLength="138" x="125.75" y="258.1543">ParameterStringBuilder</text><line style="stroke: #A80036; stroke-width: 1.5;" x1="7" x2="339" y1="270" y2="270"/><line style="stroke: #A80036; stroke-width: 1.5;" x1="7" x2="339" y1="278" y2="278"/><ellipse cx="17" cy="289" fill="#84BE84" rx="3" ry="3" style="stroke: #038048; stroke-width: 1.0;"/><text fill="#000000" font-family="sans-serif" font-size="11" lengthAdjust="spacingAndGlyphs" text-decoration="underline" textLength="308" x="26" y="292.2104">getParamsString(params: Map&lt;String, String&gt;) : String</text><!--MD5=[c60af77fe5573b84a4aa4bce89659574]
class Server--><rect fill="#FEFECE" filter="url(#fsj4j2i9e8ksk)" height="86.4141" id="Server" style="stroke: #A80036; stroke-width: 1.5;" width="238" x="375" y="225.5"/><ellipse cx="463.75" cy="241.5" fill="#ADD1B2" rx="11" ry="11" style="stroke: #A80036; stroke-width: 1.0;"/><path d="M466.0938,237.1719 C465.1563,236.7344 464.5625,236.5938 463.6875,236.5938 C461.0625,236.5938 459.0625,238.6719 459.0625,241.3906 L459.0625,242.5156 C459.0625,245.0938 461.1719,246.9844 464.0625,246.9844 C465.2813,246.9844 466.4375,246.6875 467.1875,246.1406 C467.7656,245.7344 468.0938,245.2813 468.0938,244.8906 C468.0938,244.4375 467.7031,244.0469 467.2344,244.0469 C467.0156,244.0469 466.8125,244.125 466.625,244.3125 C466.1719,244.7969 466.1719,244.7969 465.9844,244.8906 C465.5625,245.1563 464.875,245.2813 464.1094,245.2813 C462.0625,245.2813 460.7656,244.1875 460.7656,242.4844 L460.7656,241.3906 C460.7656,239.6094 462.0156,238.2969 463.75,238.2969 C464.3281,238.2969 464.9375,238.4531 465.4063,238.7031 C465.8906,238.9844 466.0625,239.2031 466.1563,239.6094 C466.2188,240.0156 466.25,240.1406 466.3906,240.2656 C466.5313,240.4063 466.7656,240.5156 466.9844,240.5156 C467.25,240.5156 467.5156,240.375 467.6875,240.1563 C467.7969,240 467.8281,239.8125 467.8281,239.3906 L467.8281,237.9688 C467.8281,237.5313 467.8125,237.4063 467.7188,237.25 C467.5625,236.9844 467.2813,236.8438 466.9844,236.8438 C466.6875,236.8438 466.4844,236.9375 466.2656,237.25 L466.0938,237.1719 Z "/><ellipse cx="489.25" cy="241" fill="#84BE84" rx="3" ry="3" style="stroke: #038048; stroke-width: 1.0;"/><text fill="#000000" font-family="sans-serif" font-size="12" lengthAdjust="spacingAndGlyphs" textLength="41" x="495.25" y="245.6543">Server</text><line style="stroke: #A80036; stroke-width: 1.5;" x1="376" x2="612" y1="257.5" y2="257.5"/><ellipse cx="386" cy="268.5" fill="none" rx="3" ry="3" style="stroke: #038048; stroke-width: 1.0;"/><text fill="#000000" font-family="sans-serif" font-size="11" lengthAdjust="spacingAndGlyphs" textLength="74" x="395" y="271.7104">Name: String</text><ellipse cx="386" cy="281.3047" fill="none" rx="3" ry="3" style="stroke: #038048; stroke-width: 1.0;"/><text fill="#000000" font-family="sans-serif" font-size="11" lengthAdjust="spacingAndGlyphs" textLength="86" x="395" y="284.5151">Address: String</text><line style="stroke: #A80036; stroke-width: 1.5;" x1="376" x2="612" y1="291.1094" y2="291.1094"/><ellipse cx="386" cy="302.1094" fill="#84BE84" rx="3" ry="3" style="stroke: #038048; stroke-width: 1.0;"/><text fill="#000000" font-family="sans-serif" font-size="11" lengthAdjust="spacingAndGlyphs" textLength="212" x="395" y="305.3198">Server(name: String, address: String)</text><!--MD5=[ed15e4b4378ef2b54f6eaba16beaf40a]
reverse link AppCompatActivity to MainActivity--><path d="M1177.52,108.627 C1104.16,138.396 991.59,184.075 905.952,218.825 " fill="none" id="AppCompatActivity&lt;-MainActivity" style="stroke: #A80036; stroke-width: 1.0;"/><polygon fill="none" points="1175.04,102.081,1196.2,101.047,1180.3,115.053,1175.04,102.081" style="stroke: #A80036; stroke-width: 1.0;"/><!--MD5=[78363f8a36c747d5c69bf7bf5d15b844]
reverse link AppCompatActivity to AddServerActivity--><path d="M1221.09,116.765 C1196.76,146.316 1163.11,187.197 1136.98,218.93 " fill="none" id="AppCompatActivity&lt;-AddServerActivity" style="stroke: #A80036; stroke-width: 1.0;"/><polygon fill="none" points="1215.76,112.228,1233.87,101.236,1226.56,121.126,1215.76,112.228" style="stroke: #A80036; stroke-width: 1.0;"/><!--MD5=[195b0a12bf4b3effbd56f07b468145f2]
reverse link AppCompatActivity to SelectServerActivity--><path d="M1285.21,116.884 C1314.93,152.754 1358.42,205.242 1385.43,237.8386 " fill="none" id="AppCompatActivity&lt;-SelectServerActivity" style="stroke: #A80036; stroke-width: 1.0;"/><polygon fill="none" points="1279.62,121.103,1272.25,101.236,1290.4,112.172,1279.62,121.103" style="stroke: #A80036; stroke-width: 1.0;"/><!--MD5=[c559f8ad0888b4ff9e036498a733d48a]
reverse link AppCompatActivity to SeeInfos--><path d="M1337.4,108.064 C1401.78,132.004 1492.03,167.747 1568,206 C1573.68,208.862 1579.47,211.933 1585.26,215.12 " fill="none" id="AppCompatActivity&lt;-SeeInfos" style="stroke: #A80036; stroke-width: 1.0;"/><polygon fill="none" points="1334.64,114.508,1318.3,101.024,1339.48,101.371,1334.64,114.508" style="stroke: #A80036; stroke-width: 1.0;"/><!--MD5=[a12e76db8d64b2a44fa748ebfc6ad9e6]
link InfluxDB to Utilities--><!--MD5=[ae2fbb5646ffb108192ec9f29a768aab]
link InfluxDB to ParameterStringBuilder--><!--MD5=[340d70504ada5542b830ce55ba14738c]
link ParameterStringBuilder to Server--><!--MD5=[f3cff2b085b40b7b2993727b10b93f4b]
@startuml
+class InfluxDB {
        + String currentServerAddress

        +setCurrentServerAddress(String address) : void
        +getRamUsage() : Double
        +getCPUUsage() : Double
    }

    +class Utilities {
        - {static} ArrayList<Server> servers
        - {static} int selectedServerIndex
        + {static} getAllServersAsString() : String[]
        + {static} addServer(server: Server) : void
        + {static} getCurrentServerIndex() : int
        + {static} setCurrentServer(serverIndex: int) : void
        + {static} getCurrentServer() : Server 
    }

    +class MainActivity extends AppCompatActivity {
        # onCreate(saveInstanceState: Bundle) : void
        + selectServerClick(view: View) : void
        + addServerClick(view: View) : void
        + statisticsClick(view: View) : void
    }

    +class AddServerActivity extends AppCompatActivity {
        + addButton : Button
        + nameEdit : EditText
        + addressEdit : EditText

        # onCreate(saveInstanceState: Bundle) : void
    }

    +class SelectServerActivity extends AppCompatActivity {
        # onCreate(saveInstanceState : Bundle) : void
    }

    +class SeeInfos extends AppCompatActivity {
        + ram_usage : TextView
        + cpu_usage : TextView
        + server_name : TextView
        + server : Server
        + influxDB : InfluxDB

        + onCreate() : void
    }

    +class ParameterStringBuilder {
        + {static} getParamsString(params: Map<String, String>) : String
    }

    +class Server {
        + Name: String
        + Address: String

        + Server(name: String, address: String)
    }
@enduml

PlantUML version 1.2020.09(Sun May 10 10:51:06 UTC 2020)
(GPL source distribution)
Java Runtime: Java(TM) SE Runtime Environment
JVM: Java HotSpot(TM) 64-Bit Server VM
Java Version: 14.0.1+7
Operating System: Linux
Default Encoding: UTF-8
Language: en
Country: US
--></g></svg>