<?xml version="1.0" encoding="UTF-8" standalone="no"?><svg xmlns="http://www.w3.org/2000/svg" xmlns:xlink="http://www.w3.org/1999/xlink" contentScriptType="application/ecmascript" contentStyleType="text/css" height="446px" preserveAspectRatio="none" style="width:1951px;height:446px;" version="1.1" viewBox="0 0 1951 446" width="1951px" zoomAndPan="magnify"><defs><filter height="300%" id="f1hrqerwwvrlfs" width="300%" x="-1" y="-1"><feGaussianBlur result="blurOut" stdDeviation="2.0"/><feColorMatrix in="blurOut" result="blurOut2" type="matrix" values="0 0 0 0 0 0 0 0 0 0 0 0 0 0 0 0 0 0 .4 0"/><feOffset dx="4.0" dy="4.0" in="blurOut2" result="blurOut3"/><feBlend in="SourceGraphic" in2="blurOut3" mode="normal"/></filter></defs><g><!--MD5=[1b52a8b596ce08ae40bcbd3f2e5d601e]
class InfluxDB--><rect codeLine="1" fill="#FEFECE" filter="url(#f1hrqerwwvrlfs)" height="163.2422" id="InfluxDB" style="stroke: #A80036; stroke-width: 1.5;" width="384" x="46" y="26.5"/><ellipse cx="204.25" cy="42.5" fill="#ADD1B2" rx="11" ry="11" style="stroke: #A80036; stroke-width: 1.0;"/><path d="M206.5938,38.1719 C205.6563,37.7344 205.0625,37.5938 204.1875,37.5938 C201.5625,37.5938 199.5625,39.6719 199.5625,42.3906 L199.5625,43.5156 C199.5625,46.0938 201.6719,47.9844 204.5625,47.9844 C205.7813,47.9844 206.9375,47.6875 207.6875,47.1406 C208.2656,46.7344 208.5938,46.2813 208.5938,45.8906 C208.5938,45.4375 208.2031,45.0469 207.7344,45.0469 C207.5156,45.0469 207.3125,45.125 207.125,45.3125 C206.6719,45.7969 206.6719,45.7969 206.4844,45.8906 C206.0625,46.1563 205.375,46.2813 204.6094,46.2813 C202.5625,46.2813 201.2656,45.1875 201.2656,43.4844 L201.2656,42.3906 C201.2656,40.6094 202.5156,39.2969 204.25,39.2969 C204.8281,39.2969 205.4375,39.4531 205.9063,39.7031 C206.3906,39.9844 206.5625,40.2031 206.6563,40.6094 C206.7188,41.0156 206.75,41.1406 206.8906,41.2656 C207.0313,41.4063 207.2656,41.5156 207.4844,41.5156 C207.75,41.5156 208.0156,41.375 208.1875,41.1563 C208.2969,41 208.3281,40.8125 208.3281,40.3906 L208.3281,38.9688 C208.3281,38.5313 208.3125,38.4063 208.2188,38.25 C208.0625,37.9844 207.7813,37.8438 207.4844,37.8438 C207.1875,37.8438 206.9844,37.9375 206.7656,38.25 L206.5938,38.1719 Z " fill="#000000"/><ellipse cx="229.75" cy="42" fill="#84BE84" rx="3" ry="3" style="stroke: #038048; stroke-width: 1.0;"/><text fill="#000000" font-family="sans-serif" font-size="12" lengthAdjust="spacingAndGlyphs" textLength="48" x="235.75" y="46.6543">InfluxDB</text><line style="stroke: #A80036; stroke-width: 1.5;" x1="47" x2="429" y1="58.5" y2="58.5"/><ellipse cx="57" cy="69.5" fill="none" rx="3" ry="3" style="stroke: #038048; stroke-width: 1.0;"/><text fill="#000000" font-family="sans-serif" font-size="11" lengthAdjust="spacingAndGlyphs" textLength="162" x="66" y="72.7104">String currentServerAddress</text><line style="stroke: #A80036; stroke-width: 1.5;" x1="47" x2="429" y1="79.3047" y2="79.3047"/><ellipse cx="57" cy="90.3047" fill="#84BE84" rx="3" ry="3" style="stroke: #038048; stroke-width: 1.0;"/><text fill="#000000" font-family="sans-serif" font-size="11" lengthAdjust="spacingAndGlyphs" textLength="87" x="66" y="93.5151">InfluxDB(): void</text><ellipse cx="57" cy="103.1094" fill="#84BE84" rx="3" ry="3" style="stroke: #038048; stroke-width: 1.0;"/><text fill="#000000" font-family="sans-serif" font-size="11" lengthAdjust="spacingAndGlyphs" textLength="270" x="66" y="106.3198">setCurrentServerAddress(String address) : void</text><ellipse cx="57" cy="115.9141" fill="#84BE84" rx="3" ry="3" style="stroke: #038048; stroke-width: 1.0;"/><text fill="#000000" font-family="sans-serif" font-size="11" lengthAdjust="spacingAndGlyphs" textLength="140" x="66" y="119.1245">getRamUsage() : Double</text><ellipse cx="57" cy="128.7188" fill="#84BE84" rx="3" ry="3" style="stroke: #038048; stroke-width: 1.0;"/><text fill="#000000" font-family="sans-serif" font-size="11" lengthAdjust="spacingAndGlyphs" textLength="137" x="66" y="131.9292">getCPUUsage() : Double</text><ellipse cx="57" cy="141.5234" fill="#84BE84" rx="3" ry="3" style="stroke: #038048; stroke-width: 1.0;"/><text fill="#000000" font-family="sans-serif" font-size="11" lengthAdjust="spacingAndGlyphs" textLength="93" x="66" y="144.7339">getUptime() : int</text><rect fill="#F24D5C" height="6" style="stroke: #C82930; stroke-width: 1.0;" width="6" x="54" y="151.3281"/><text fill="#000000" font-family="sans-serif" font-size="11" lengthAdjust="spacingAndGlyphs" textLength="358" x="66" y="157.5386">doInfluxRequest(parameters: Map&lt;string, string&gt;): StringBuffer</text><ellipse cx="57" cy="167.1328" fill="#84BE84" rx="3" ry="3" style="stroke: #038048; stroke-width: 1.0;"/><text fill="#000000" font-family="sans-serif" font-size="11" lengthAdjust="spacingAndGlyphs" textLength="211" x="66" y="170.3433">getCPUOverTime(): UsageWithTime[]</text><ellipse cx="57" cy="179.9375" fill="#84BE84" rx="3" ry="3" style="stroke: #038048; stroke-width: 1.0;"/><text fill="#000000" font-family="sans-serif" font-size="11" lengthAdjust="spacingAndGlyphs" textLength="213" x="66" y="183.1479">getRAMOverTime(): UsageWithTime[]</text><!--MD5=[5fc9b60f5d5c64ad0df8704dae8d48bb]
class Utilities--><rect codeLine="14" fill="#FEFECE" filter="url(#f1hrqerwwvrlfs)" height="201.6563" id="Utilities" style="stroke: #A80036; stroke-width: 1.5;" width="275" x="530.5" y="7"/><ellipse cx="636.25" cy="23" fill="#ADD1B2" rx="11" ry="11" style="stroke: #A80036; stroke-width: 1.0;"/><path d="M638.5938,18.6719 C637.6563,18.2344 637.0625,18.0938 636.1875,18.0938 C633.5625,18.0938 631.5625,20.1719 631.5625,22.8906 L631.5625,24.0156 C631.5625,26.5938 633.6719,28.4844 636.5625,28.4844 C637.7813,28.4844 638.9375,28.1875 639.6875,27.6406 C640.2656,27.2344 640.5938,26.7813 640.5938,26.3906 C640.5938,25.9375 640.2031,25.5469 639.7344,25.5469 C639.5156,25.5469 639.3125,25.625 639.125,25.8125 C638.6719,26.2969 638.6719,26.2969 638.4844,26.3906 C638.0625,26.6563 637.375,26.7813 636.6094,26.7813 C634.5625,26.7813 633.2656,25.6875 633.2656,23.9844 L633.2656,22.8906 C633.2656,21.1094 634.5156,19.7969 636.25,19.7969 C636.8281,19.7969 637.4375,19.9531 637.9063,20.2031 C638.3906,20.4844 638.5625,20.7031 638.6563,21.1094 C638.7188,21.5156 638.75,21.6406 638.8906,21.7656 C639.0313,21.9063 639.2656,22.0156 639.4844,22.0156 C639.75,22.0156 640.0156,21.875 640.1875,21.6563 C640.2969,21.5 640.3281,21.3125 640.3281,20.8906 L640.3281,19.4688 C640.3281,19.0313 640.3125,18.9063 640.2188,18.75 C640.0625,18.4844 639.7813,18.3438 639.4844,18.3438 C639.1875,18.3438 638.9844,18.4375 638.7656,18.75 L638.5938,18.6719 Z " fill="#000000"/><ellipse cx="661.75" cy="22.5" fill="#84BE84" rx="3" ry="3" style="stroke: #038048; stroke-width: 1.0;"/><text fill="#000000" font-family="sans-serif" font-size="12" lengthAdjust="spacingAndGlyphs" textLength="44" x="667.75" y="27.1543">Utilities</text><line style="stroke: #A80036; stroke-width: 1.5;" x1="531.5" x2="804.5" y1="39" y2="39"/><rect fill="none" height="6" style="stroke: #C82930; stroke-width: 1.0;" width="6" x="538.5" y="47"/><text fill="#000000" font-family="sans-serif" font-size="11" lengthAdjust="spacingAndGlyphs" text-decoration="underline" textLength="153" x="550.5" y="53.2104">ArrayList&lt;Server&gt; servers</text><rect fill="none" height="6" style="stroke: #C82930; stroke-width: 1.0;" width="6" x="538.5" y="59.8047"/><text fill="#000000" font-family="sans-serif" font-size="11" lengthAdjust="spacingAndGlyphs" text-decoration="underline" textLength="139" x="550.5" y="66.0151">int selectedServerIndex</text><line style="stroke: #A80036; stroke-width: 1.5;" x1="531.5" x2="804.5" y1="72.6094" y2="72.6094"/><ellipse cx="541.5" cy="83.6094" fill="#84BE84" rx="3" ry="3" style="stroke: #038048; stroke-width: 1.0;"/><text fill="#000000" font-family="sans-serif" font-size="11" lengthAdjust="spacingAndGlyphs" text-decoration="underline" textLength="50" x="550.5" y="86.8198">Utilities()</text><ellipse cx="541.5" cy="96.4141" fill="#84BE84" rx="3" ry="3" style="stroke: #038048; stroke-width: 1.0;"/><text fill="#000000" font-family="sans-serif" font-size="11" lengthAdjust="spacingAndGlyphs" text-decoration="underline" textLength="185" x="550.5" y="99.6245">getAllServersAsString() : String[]</text><ellipse cx="541.5" cy="109.2188" fill="#84BE84" rx="3" ry="3" style="stroke: #038048; stroke-width: 1.0;"/><text fill="#000000" font-family="sans-serif" font-size="11" lengthAdjust="spacingAndGlyphs" text-decoration="underline" textLength="186" x="550.5" y="112.4292">addServer(server: Server) : void</text><ellipse cx="541.5" cy="122.0234" fill="#84BE84" rx="3" ry="3" style="stroke: #038048; stroke-width: 1.0;"/><text fill="#000000" font-family="sans-serif" font-size="11" lengthAdjust="spacingAndGlyphs" text-decoration="underline" textLength="165" x="550.5" y="125.2339">getCurrentServerIndex() : int</text><ellipse cx="541.5" cy="134.8281" fill="#84BE84" rx="3" ry="3" style="stroke: #038048; stroke-width: 1.0;"/><text fill="#000000" font-family="sans-serif" font-size="11" lengthAdjust="spacingAndGlyphs" text-decoration="underline" textLength="232" x="550.5" y="138.0386">setCurrentServer(serverIndex: int) : void</text><ellipse cx="541.5" cy="147.6328" fill="#84BE84" rx="3" ry="3" style="stroke: #038048; stroke-width: 1.0;"/><text fill="#000000" font-family="sans-serif" font-size="11" lengthAdjust="spacingAndGlyphs" text-decoration="underline" textLength="158" x="550.5" y="150.8433">getCurrentServer() : Server</text><ellipse cx="541.5" cy="160.4375" fill="#84BE84" rx="3" ry="3" style="stroke: #038048; stroke-width: 1.0;"/><text fill="#000000" font-family="sans-serif" font-size="11" lengthAdjust="spacingAndGlyphs" text-decoration="underline" textLength="206" x="550.5" y="163.6479">deleteServer(serverIndex: int): void</text><ellipse cx="541.5" cy="173.2422" fill="#84BE84" rx="3" ry="3" style="stroke: #038048; stroke-width: 1.0;"/><text fill="#000000" font-family="sans-serif" font-size="11" lengthAdjust="spacingAndGlyphs" text-decoration="underline" textLength="249" x="550.5" y="176.4526">editServer(serverIndex: int, server: Server)</text><ellipse cx="541.5" cy="186.0469" fill="#84BE84" rx="3" ry="3" style="stroke: #038048; stroke-width: 1.0;"/><text fill="#000000" font-family="sans-serif" font-size="11" lengthAdjust="spacingAndGlyphs" text-decoration="underline" textLength="94" x="550.5" y="189.2573">saveData(): void</text><ellipse cx="541.5" cy="198.8516" fill="#84BE84" rx="3" ry="3" style="stroke: #038048; stroke-width: 1.0;"/><text fill="#000000" font-family="sans-serif" font-size="11" lengthAdjust="spacingAndGlyphs" text-decoration="underline" textLength="90" x="550.5" y="202.062">loadData(): void</text><!--MD5=[5db00888549904919e3a09c35d77129e]
class MainActivity--><rect codeLine="29" fill="#FEFECE" filter="url(#f1hrqerwwvrlfs)" height="124.8281" id="MainActivity" style="stroke: #A80036; stroke-width: 1.5;" width="276" x="822" y="288"/><ellipse cx="915.25" cy="304" fill="#ADD1B2" rx="11" ry="11" style="stroke: #A80036; stroke-width: 1.0;"/><path d="M917.5938,299.6719 C916.6563,299.2344 916.0625,299.0938 915.1875,299.0938 C912.5625,299.0938 910.5625,301.1719 910.5625,303.8906 L910.5625,305.0156 C910.5625,307.5938 912.6719,309.4844 915.5625,309.4844 C916.7813,309.4844 917.9375,309.1875 918.6875,308.6406 C919.2656,308.2344 919.5938,307.7813 919.5938,307.3906 C919.5938,306.9375 919.2031,306.5469 918.7344,306.5469 C918.5156,306.5469 918.3125,306.625 918.125,306.8125 C917.6719,307.2969 917.6719,307.2969 917.4844,307.3906 C917.0625,307.6563 916.375,307.7813 915.6094,307.7813 C913.5625,307.7813 912.2656,306.6875 912.2656,304.9844 L912.2656,303.8906 C912.2656,302.1094 913.5156,300.7969 915.25,300.7969 C915.8281,300.7969 916.4375,300.9531 916.9063,301.2031 C917.3906,301.4844 917.5625,301.7031 917.6563,302.1094 C917.7188,302.5156 917.75,302.6406 917.8906,302.7656 C918.0313,302.9063 918.2656,303.0156 918.4844,303.0156 C918.75,303.0156 919.0156,302.875 919.1875,302.6563 C919.2969,302.5 919.3281,302.3125 919.3281,301.8906 L919.3281,300.4688 C919.3281,300.0313 919.3125,299.9063 919.2188,299.75 C919.0625,299.4844 918.7813,299.3438 918.4844,299.3438 C918.1875,299.3438 917.9844,299.4375 917.7656,299.75 L917.5938,299.6719 Z " fill="#000000"/><ellipse cx="940.75" cy="303.5" fill="#84BE84" rx="3" ry="3" style="stroke: #038048; stroke-width: 1.0;"/><text fill="#000000" font-family="sans-serif" font-size="12" lengthAdjust="spacingAndGlyphs" textLength="70" x="946.75" y="308.1543">MainActivity</text><line style="stroke: #A80036; stroke-width: 1.5;" x1="823" x2="1097" y1="320" y2="320"/><line style="stroke: #A80036; stroke-width: 1.5;" x1="823" x2="1097" y1="328" y2="328"/><polygon fill="#FFFF44" points="833,334,837,338,833,342,829,338" style="stroke: #B38D22; stroke-width: 1.0;"/><text fill="#000000" font-family="sans-serif" font-size="11" lengthAdjust="spacingAndGlyphs" textLength="250" x="842" y="342.2104">onCreate(saveInstanceState: Bundle) : void</text><ellipse cx="833" cy="351.8047" fill="#84BE84" rx="3" ry="3" style="stroke: #038048; stroke-width: 1.0;"/><text fill="#000000" font-family="sans-serif" font-size="11" lengthAdjust="spacingAndGlyphs" textLength="205" x="842" y="355.0151">selectServerClick(view: View) : void</text><ellipse cx="833" cy="364.6094" fill="#84BE84" rx="3" ry="3" style="stroke: #038048; stroke-width: 1.0;"/><text fill="#000000" font-family="sans-serif" font-size="11" lengthAdjust="spacingAndGlyphs" textLength="191" x="842" y="367.8198">addServerClick(view: View) : void</text><ellipse cx="833" cy="377.4141" fill="#84BE84" rx="3" ry="3" style="stroke: #038048; stroke-width: 1.0;"/><text fill="#000000" font-family="sans-serif" font-size="11" lengthAdjust="spacingAndGlyphs" textLength="180" x="842" y="380.6245">statisticsClick(view: View) : void</text><ellipse cx="833" cy="390.2188" fill="#84BE84" rx="3" ry="3" style="stroke: #038048; stroke-width: 1.0;"/><text fill="#000000" font-family="sans-serif" font-size="11" lengthAdjust="spacingAndGlyphs" textLength="204" x="842" y="393.4292">deleteServerClick(view: View): void</text><ellipse cx="833" cy="403.0234" fill="#84BE84" rx="3" ry="3" style="stroke: #038048; stroke-width: 1.0;"/><text fill="#000000" font-family="sans-serif" font-size="11" lengthAdjust="spacingAndGlyphs" textLength="188" x="842" y="406.2339">editServerClick(view: View): void</text><!--MD5=[5839a728ddc01d792fb5317e858e9ae0]
class AppCompatActivity--><rect fill="#FEFECE" filter="url(#f1hrqerwwvrlfs)" height="48" id="AppCompatActivity" style="stroke: #A80036; stroke-width: 1.5;" width="145" x="1354.5" y="84"/><ellipse cx="1369.5" cy="100" fill="#ADD1B2" rx="11" ry="11" style="stroke: #A80036; stroke-width: 1.0;"/><path d="M1371.8438,95.6719 C1370.9063,95.2344 1370.3125,95.0938 1369.4375,95.0938 C1366.8125,95.0938 1364.8125,97.1719 1364.8125,99.8906 L1364.8125,101.0156 C1364.8125,103.5938 1366.9219,105.4844 1369.8125,105.4844 C1371.0313,105.4844 1372.1875,105.1875 1372.9375,104.6406 C1373.5156,104.2344 1373.8438,103.7813 1373.8438,103.3906 C1373.8438,102.9375 1373.4531,102.5469 1372.9844,102.5469 C1372.7656,102.5469 1372.5625,102.625 1372.375,102.8125 C1371.9219,103.2969 1371.9219,103.2969 1371.7344,103.3906 C1371.3125,103.6563 1370.625,103.7813 1369.8594,103.7813 C1367.8125,103.7813 1366.5156,102.6875 1366.5156,100.9844 L1366.5156,99.8906 C1366.5156,98.1094 1367.7656,96.7969 1369.5,96.7969 C1370.0781,96.7969 1370.6875,96.9531 1371.1563,97.2031 C1371.6406,97.4844 1371.8125,97.7031 1371.9063,98.1094 C1371.9688,98.5156 1372,98.6406 1372.1406,98.7656 C1372.2813,98.9063 1372.5156,99.0156 1372.7344,99.0156 C1373,99.0156 1373.2656,98.875 1373.4375,98.6563 C1373.5469,98.5 1373.5781,98.3125 1373.5781,97.8906 L1373.5781,96.4688 C1373.5781,96.0313 1373.5625,95.9063 1373.4688,95.75 C1373.3125,95.4844 1373.0313,95.3438 1372.7344,95.3438 C1372.4375,95.3438 1372.2344,95.4375 1372.0156,95.75 L1371.8438,95.6719 Z " fill="#000000"/><text fill="#000000" font-family="sans-serif" font-size="12" lengthAdjust="spacingAndGlyphs" textLength="113" x="1383.5" y="104.1543">AppCompatActivity</text><line style="stroke: #A80036; stroke-width: 1.5;" x1="1355.5" x2="1498.5" y1="116" y2="116"/><line style="stroke: #A80036; stroke-width: 1.5;" x1="1355.5" x2="1498.5" y1="124" y2="124"/><!--MD5=[6f93c78212a12a5538d1a85c08ed5c78]
class AddServerActivity--><rect codeLine="38" fill="#FEFECE" filter="url(#f1hrqerwwvrlfs)" height="99.2188" id="AddServerActivity" style="stroke: #A80036; stroke-width: 1.5;" width="276" x="1133" y="301"/><ellipse cx="1207.25" cy="317" fill="#ADD1B2" rx="11" ry="11" style="stroke: #A80036; stroke-width: 1.0;"/><path d="M1209.5938,312.6719 C1208.6563,312.2344 1208.0625,312.0938 1207.1875,312.0938 C1204.5625,312.0938 1202.5625,314.1719 1202.5625,316.8906 L1202.5625,318.0156 C1202.5625,320.5938 1204.6719,322.4844 1207.5625,322.4844 C1208.7813,322.4844 1209.9375,322.1875 1210.6875,321.6406 C1211.2656,321.2344 1211.5938,320.7813 1211.5938,320.3906 C1211.5938,319.9375 1211.2031,319.5469 1210.7344,319.5469 C1210.5156,319.5469 1210.3125,319.625 1210.125,319.8125 C1209.6719,320.2969 1209.6719,320.2969 1209.4844,320.3906 C1209.0625,320.6563 1208.375,320.7813 1207.6094,320.7813 C1205.5625,320.7813 1204.2656,319.6875 1204.2656,317.9844 L1204.2656,316.8906 C1204.2656,315.1094 1205.5156,313.7969 1207.25,313.7969 C1207.8281,313.7969 1208.4375,313.9531 1208.9063,314.2031 C1209.3906,314.4844 1209.5625,314.7031 1209.6563,315.1094 C1209.7188,315.5156 1209.75,315.6406 1209.8906,315.7656 C1210.0313,315.9063 1210.2656,316.0156 1210.4844,316.0156 C1210.75,316.0156 1211.0156,315.875 1211.1875,315.6563 C1211.2969,315.5 1211.3281,315.3125 1211.3281,314.8906 L1211.3281,313.4688 C1211.3281,313.0313 1211.3125,312.9063 1211.2188,312.75 C1211.0625,312.4844 1210.7813,312.3438 1210.4844,312.3438 C1210.1875,312.3438 1209.9844,312.4375 1209.7656,312.75 L1209.5938,312.6719 Z " fill="#000000"/><ellipse cx="1232.75" cy="316.5" fill="#84BE84" rx="3" ry="3" style="stroke: #038048; stroke-width: 1.0;"/><text fill="#000000" font-family="sans-serif" font-size="12" lengthAdjust="spacingAndGlyphs" textLength="108" x="1238.75" y="321.1543">AddServerActivity</text><line style="stroke: #A80036; stroke-width: 1.5;" x1="1134" x2="1408" y1="333" y2="333"/><ellipse cx="1144" cy="344" fill="none" rx="3" ry="3" style="stroke: #038048; stroke-width: 1.0;"/><text fill="#000000" font-family="sans-serif" font-size="11" lengthAdjust="spacingAndGlyphs" textLength="106" x="1153" y="347.2104">addButton : Button</text><ellipse cx="1144" cy="356.8047" fill="none" rx="3" ry="3" style="stroke: #038048; stroke-width: 1.0;"/><text fill="#000000" font-family="sans-serif" font-size="11" lengthAdjust="spacingAndGlyphs" textLength="112" x="1153" y="360.0151">nameEdit : EditText</text><ellipse cx="1144" cy="369.6094" fill="none" rx="3" ry="3" style="stroke: #038048; stroke-width: 1.0;"/><text fill="#000000" font-family="sans-serif" font-size="11" lengthAdjust="spacingAndGlyphs" textLength="124" x="1153" y="372.8198">addressEdit : EditText</text><line style="stroke: #A80036; stroke-width: 1.5;" x1="1134" x2="1408" y1="379.4141" y2="379.4141"/><polygon fill="#FFFF44" points="1144,385.4141,1148,389.4141,1144,393.4141,1140,389.4141" style="stroke: #B38D22; stroke-width: 1.0;"/><text fill="#000000" font-family="sans-serif" font-size="11" lengthAdjust="spacingAndGlyphs" textLength="250" x="1153" y="393.6245">onCreate(saveInstanceState: Bundle) : void</text><!--MD5=[bea627b461d446525317890c371f4987]
class SelectServerActivity--><rect codeLine="46" fill="#FEFECE" filter="url(#f1hrqerwwvrlfs)" height="60.8047" id="SelectServerActivity" style="stroke: #A80036; stroke-width: 1.5;" width="280" x="1444" y="320"/><ellipse cx="1513.25" cy="336" fill="#ADD1B2" rx="11" ry="11" style="stroke: #A80036; stroke-width: 1.0;"/><path d="M1515.5938,331.6719 C1514.6563,331.2344 1514.0625,331.0938 1513.1875,331.0938 C1510.5625,331.0938 1508.5625,333.1719 1508.5625,335.8906 L1508.5625,337.0156 C1508.5625,339.5938 1510.6719,341.4844 1513.5625,341.4844 C1514.7813,341.4844 1515.9375,341.1875 1516.6875,340.6406 C1517.2656,340.2344 1517.5938,339.7813 1517.5938,339.3906 C1517.5938,338.9375 1517.2031,338.5469 1516.7344,338.5469 C1516.5156,338.5469 1516.3125,338.625 1516.125,338.8125 C1515.6719,339.2969 1515.6719,339.2969 1515.4844,339.3906 C1515.0625,339.6563 1514.375,339.7813 1513.6094,339.7813 C1511.5625,339.7813 1510.2656,338.6875 1510.2656,336.9844 L1510.2656,335.8906 C1510.2656,334.1094 1511.5156,332.7969 1513.25,332.7969 C1513.8281,332.7969 1514.4375,332.9531 1514.9063,333.2031 C1515.3906,333.4844 1515.5625,333.7031 1515.6563,334.1094 C1515.7188,334.5156 1515.75,334.6406 1515.8906,334.7656 C1516.0313,334.9063 1516.2656,335.0156 1516.4844,335.0156 C1516.75,335.0156 1517.0156,334.875 1517.1875,334.6563 C1517.2969,334.5 1517.3281,334.3125 1517.3281,333.8906 L1517.3281,332.4688 C1517.3281,332.0313 1517.3125,331.9063 1517.2188,331.75 C1517.0625,331.4844 1516.7813,331.3438 1516.4844,331.3438 C1516.1875,331.3438 1515.9844,331.4375 1515.7656,331.75 L1515.5938,331.6719 Z " fill="#000000"/><ellipse cx="1538.75" cy="335.5" fill="#84BE84" rx="3" ry="3" style="stroke: #038048; stroke-width: 1.0;"/><text fill="#000000" font-family="sans-serif" font-size="12" lengthAdjust="spacingAndGlyphs" textLength="122" x="1544.75" y="340.1543">SelectServerActivity</text><line style="stroke: #A80036; stroke-width: 1.5;" x1="1445" x2="1723" y1="352" y2="352"/><line style="stroke: #A80036; stroke-width: 1.5;" x1="1445" x2="1723" y1="360" y2="360"/><polygon fill="#FFFF44" points="1455,366,1459,370,1455,374,1451,370" style="stroke: #B38D22; stroke-width: 1.0;"/><text fill="#000000" font-family="sans-serif" font-size="11" lengthAdjust="spacingAndGlyphs" textLength="254" x="1464" y="374.2104">onCreate(saveInstanceState : Bundle) : void</text><!--MD5=[034303723d397e2a8848ac011102e9c1]
class SeeInfos--><rect codeLine="50" fill="#FEFECE" filter="url(#f1hrqerwwvrlfs)" height="163.2422" id="SeeInfos" style="stroke: #A80036; stroke-width: 1.5;" width="178" x="1759" y="269"/><ellipse cx="1811.75" cy="285" fill="#ADD1B2" rx="11" ry="11" style="stroke: #A80036; stroke-width: 1.0;"/><path d="M1814.0938,280.6719 C1813.1563,280.2344 1812.5625,280.0938 1811.6875,280.0938 C1809.0625,280.0938 1807.0625,282.1719 1807.0625,284.8906 L1807.0625,286.0156 C1807.0625,288.5938 1809.1719,290.4844 1812.0625,290.4844 C1813.2813,290.4844 1814.4375,290.1875 1815.1875,289.6406 C1815.7656,289.2344 1816.0938,288.7813 1816.0938,288.3906 C1816.0938,287.9375 1815.7031,287.5469 1815.2344,287.5469 C1815.0156,287.5469 1814.8125,287.625 1814.625,287.8125 C1814.1719,288.2969 1814.1719,288.2969 1813.9844,288.3906 C1813.5625,288.6563 1812.875,288.7813 1812.1094,288.7813 C1810.0625,288.7813 1808.7656,287.6875 1808.7656,285.9844 L1808.7656,284.8906 C1808.7656,283.1094 1810.0156,281.7969 1811.75,281.7969 C1812.3281,281.7969 1812.9375,281.9531 1813.4063,282.2031 C1813.8906,282.4844 1814.0625,282.7031 1814.1563,283.1094 C1814.2188,283.5156 1814.25,283.6406 1814.3906,283.7656 C1814.5313,283.9063 1814.7656,284.0156 1814.9844,284.0156 C1815.25,284.0156 1815.5156,283.875 1815.6875,283.6563 C1815.7969,283.5 1815.8281,283.3125 1815.8281,282.8906 L1815.8281,281.4688 C1815.8281,281.0313 1815.8125,280.9063 1815.7188,280.75 C1815.5625,280.4844 1815.2813,280.3438 1814.9844,280.3438 C1814.6875,280.3438 1814.4844,280.4375 1814.2656,280.75 L1814.0938,280.6719 Z " fill="#000000"/><ellipse cx="1837.25" cy="284.5" fill="#84BE84" rx="3" ry="3" style="stroke: #038048; stroke-width: 1.0;"/><text fill="#000000" font-family="sans-serif" font-size="12" lengthAdjust="spacingAndGlyphs" textLength="53" x="1843.25" y="289.1543">SeeInfos</text><line style="stroke: #A80036; stroke-width: 1.5;" x1="1760" x2="1936" y1="301" y2="301"/><ellipse cx="1770" cy="312" fill="none" rx="3" ry="3" style="stroke: #038048; stroke-width: 1.0;"/><text fill="#000000" font-family="sans-serif" font-size="11" lengthAdjust="spacingAndGlyphs" textLength="128" x="1779" y="315.2104">ram_usage : TextView</text><ellipse cx="1770" cy="324.8047" fill="none" rx="3" ry="3" style="stroke: #038048; stroke-width: 1.0;"/><text fill="#000000" font-family="sans-serif" font-size="11" lengthAdjust="spacingAndGlyphs" textLength="126" x="1779" y="328.0151">cpu_usage : TextView</text><ellipse cx="1770" cy="337.6094" fill="none" rx="3" ry="3" style="stroke: #038048; stroke-width: 1.0;"/><text fill="#000000" font-family="sans-serif" font-size="11" lengthAdjust="spacingAndGlyphs" textLength="141" x="1779" y="340.8198">server_name : TextView</text><ellipse cx="1770" cy="350.4141" fill="none" rx="3" ry="3" style="stroke: #038048; stroke-width: 1.0;"/><text fill="#000000" font-family="sans-serif" font-size="11" lengthAdjust="spacingAndGlyphs" textLength="101" x="1779" y="353.6245">uptime: TextView</text><ellipse cx="1770" cy="363.2188" fill="none" rx="3" ry="3" style="stroke: #038048; stroke-width: 1.0;"/><text fill="#000000" font-family="sans-serif" font-size="11" lengthAdjust="spacingAndGlyphs" textLength="87" x="1779" y="366.4292">server : Server</text><ellipse cx="1770" cy="376.0234" fill="none" rx="3" ry="3" style="stroke: #038048; stroke-width: 1.0;"/><text fill="#000000" font-family="sans-serif" font-size="11" lengthAdjust="spacingAndGlyphs" textLength="107" x="1779" y="379.2339">influxDB : InfluxDB</text><ellipse cx="1770" cy="388.8281" fill="none" rx="3" ry="3" style="stroke: #038048; stroke-width: 1.0;"/><text fill="#000000" font-family="sans-serif" font-size="11" lengthAdjust="spacingAndGlyphs" textLength="150" x="1779" y="392.0386">cpu_gauge: CustomGauge</text><ellipse cx="1770" cy="401.6328" fill="none" rx="3" ry="3" style="stroke: #038048; stroke-width: 1.0;"/><text fill="#000000" font-family="sans-serif" font-size="11" lengthAdjust="spacingAndGlyphs" textLength="152" x="1779" y="404.8433">ram_gauge: CustomGauge</text><line style="stroke: #A80036; stroke-width: 1.5;" x1="1760" x2="1936" y1="411.4375" y2="411.4375"/><ellipse cx="1770" cy="422.4375" fill="#84BE84" rx="3" ry="3" style="stroke: #038048; stroke-width: 1.0;"/><text fill="#000000" font-family="sans-serif" font-size="11" lengthAdjust="spacingAndGlyphs" textLength="96" x="1779" y="425.6479">onCreate() : void</text><!--MD5=[6650f707d11c5149613305b5f3bbcb0e]
class ParameterStringBuilder--><rect codeLine="63" fill="#FEFECE" filter="url(#f1hrqerwwvrlfs)" height="60.8047" id="ParameterStringBuilder" style="stroke: #A80036; stroke-width: 1.5;" width="334" x="7" y="320"/><ellipse cx="95.25" cy="336" fill="#ADD1B2" rx="11" ry="11" style="stroke: #A80036; stroke-width: 1.0;"/><path d="M97.5938,331.6719 C96.6563,331.2344 96.0625,331.0938 95.1875,331.0938 C92.5625,331.0938 90.5625,333.1719 90.5625,335.8906 L90.5625,337.0156 C90.5625,339.5938 92.6719,341.4844 95.5625,341.4844 C96.7813,341.4844 97.9375,341.1875 98.6875,340.6406 C99.2656,340.2344 99.5938,339.7813 99.5938,339.3906 C99.5938,338.9375 99.2031,338.5469 98.7344,338.5469 C98.5156,338.5469 98.3125,338.625 98.125,338.8125 C97.6719,339.2969 97.6719,339.2969 97.4844,339.3906 C97.0625,339.6563 96.375,339.7813 95.6094,339.7813 C93.5625,339.7813 92.2656,338.6875 92.2656,336.9844 L92.2656,335.8906 C92.2656,334.1094 93.5156,332.7969 95.25,332.7969 C95.8281,332.7969 96.4375,332.9531 96.9063,333.2031 C97.3906,333.4844 97.5625,333.7031 97.6563,334.1094 C97.7188,334.5156 97.75,334.6406 97.8906,334.7656 C98.0313,334.9063 98.2656,335.0156 98.4844,335.0156 C98.75,335.0156 99.0156,334.875 99.1875,334.6563 C99.2969,334.5 99.3281,334.3125 99.3281,333.8906 L99.3281,332.4688 C99.3281,332.0313 99.3125,331.9063 99.2188,331.75 C99.0625,331.4844 98.7813,331.3438 98.4844,331.3438 C98.1875,331.3438 97.9844,331.4375 97.7656,331.75 L97.5938,331.6719 Z " fill="#000000"/><ellipse cx="120.75" cy="335.5" fill="#84BE84" rx="3" ry="3" style="stroke: #038048; stroke-width: 1.0;"/><text fill="#000000" font-family="sans-serif" font-size="12" lengthAdjust="spacingAndGlyphs" textLength="138" x="126.75" y="340.1543">ParameterStringBuilder</text><line style="stroke: #A80036; stroke-width: 1.5;" x1="8" x2="340" y1="352" y2="352"/><line style="stroke: #A80036; stroke-width: 1.5;" x1="8" x2="340" y1="360" y2="360"/><ellipse cx="18" cy="371" fill="#84BE84" rx="3" ry="3" style="stroke: #038048; stroke-width: 1.0;"/><text fill="#000000" font-family="sans-serif" font-size="11" lengthAdjust="spacingAndGlyphs" text-decoration="underline" textLength="308" x="27" y="374.2104">getParamsString(params: Map&lt;String, String&gt;) : String</text><!--MD5=[c60af77fe5573b84a4aa4bce89659574]
class Server--><rect codeLine="67" fill="#FEFECE" filter="url(#f1hrqerwwvrlfs)" height="86.4141" id="Server" style="stroke: #A80036; stroke-width: 1.5;" width="238" x="549" y="307.5"/><ellipse cx="637.75" cy="323.5" fill="#ADD1B2" rx="11" ry="11" style="stroke: #A80036; stroke-width: 1.0;"/><path d="M640.0938,319.1719 C639.1563,318.7344 638.5625,318.5938 637.6875,318.5938 C635.0625,318.5938 633.0625,320.6719 633.0625,323.3906 L633.0625,324.5156 C633.0625,327.0938 635.1719,328.9844 638.0625,328.9844 C639.2813,328.9844 640.4375,328.6875 641.1875,328.1406 C641.7656,327.7344 642.0938,327.2813 642.0938,326.8906 C642.0938,326.4375 641.7031,326.0469 641.2344,326.0469 C641.0156,326.0469 640.8125,326.125 640.625,326.3125 C640.1719,326.7969 640.1719,326.7969 639.9844,326.8906 C639.5625,327.1563 638.875,327.2813 638.1094,327.2813 C636.0625,327.2813 634.7656,326.1875 634.7656,324.4844 L634.7656,323.3906 C634.7656,321.6094 636.0156,320.2969 637.75,320.2969 C638.3281,320.2969 638.9375,320.4531 639.4063,320.7031 C639.8906,320.9844 640.0625,321.2031 640.1563,321.6094 C640.2188,322.0156 640.25,322.1406 640.3906,322.2656 C640.5313,322.4063 640.7656,322.5156 640.9844,322.5156 C641.25,322.5156 641.5156,322.375 641.6875,322.1563 C641.7969,322 641.8281,321.8125 641.8281,321.3906 L641.8281,319.9688 C641.8281,319.5313 641.8125,319.4063 641.7188,319.25 C641.5625,318.9844 641.2813,318.8438 640.9844,318.8438 C640.6875,318.8438 640.4844,318.9375 640.2656,319.25 L640.0938,319.1719 Z " fill="#000000"/><ellipse cx="663.25" cy="323" fill="#84BE84" rx="3" ry="3" style="stroke: #038048; stroke-width: 1.0;"/><text fill="#000000" font-family="sans-serif" font-size="12" lengthAdjust="spacingAndGlyphs" textLength="41" x="669.25" y="327.6543">Server</text><line style="stroke: #A80036; stroke-width: 1.5;" x1="550" x2="786" y1="339.5" y2="339.5"/><ellipse cx="560" cy="350.5" fill="none" rx="3" ry="3" style="stroke: #038048; stroke-width: 1.0;"/><text fill="#000000" font-family="sans-serif" font-size="11" lengthAdjust="spacingAndGlyphs" textLength="74" x="569" y="353.7104">Name: String</text><ellipse cx="560" cy="363.3047" fill="none" rx="3" ry="3" style="stroke: #038048; stroke-width: 1.0;"/><text fill="#000000" font-family="sans-serif" font-size="11" lengthAdjust="spacingAndGlyphs" textLength="86" x="569" y="366.5151">Address: String</text><line style="stroke: #A80036; stroke-width: 1.5;" x1="550" x2="786" y1="373.1094" y2="373.1094"/><ellipse cx="560" cy="384.1094" fill="#84BE84" rx="3" ry="3" style="stroke: #038048; stroke-width: 1.0;"/><text fill="#000000" font-family="sans-serif" font-size="11" lengthAdjust="spacingAndGlyphs" textLength="212" x="569" y="387.3198">Server(name: String, address: String)</text><!--MD5=[5fb06df9f163d9af87d1715935be9c63]
class UsageWithTime--><rect codeLine="74" fill="#FEFECE" filter="url(#f1hrqerwwvrlfs)" height="73.6094" id="UsageWithTime" style="stroke: #A80036; stroke-width: 1.5;" width="137" x="376.5" y="313.5"/><ellipse cx="391.5" cy="329.5" fill="#ADD1B2" rx="11" ry="11" style="stroke: #A80036; stroke-width: 1.0;"/><path d="M393.8438,325.1719 C392.9063,324.7344 392.3125,324.5938 391.4375,324.5938 C388.8125,324.5938 386.8125,326.6719 386.8125,329.3906 L386.8125,330.5156 C386.8125,333.0938 388.9219,334.9844 391.8125,334.9844 C393.0313,334.9844 394.1875,334.6875 394.9375,334.1406 C395.5156,333.7344 395.8438,333.2813 395.8438,332.8906 C395.8438,332.4375 395.4531,332.0469 394.9844,332.0469 C394.7656,332.0469 394.5625,332.125 394.375,332.3125 C393.9219,332.7969 393.9219,332.7969 393.7344,332.8906 C393.3125,333.1563 392.625,333.2813 391.8594,333.2813 C389.8125,333.2813 388.5156,332.1875 388.5156,330.4844 L388.5156,329.3906 C388.5156,327.6094 389.7656,326.2969 391.5,326.2969 C392.0781,326.2969 392.6875,326.4531 393.1563,326.7031 C393.6406,326.9844 393.8125,327.2031 393.9063,327.6094 C393.9688,328.0156 394,328.1406 394.1406,328.2656 C394.2813,328.4063 394.5156,328.5156 394.7344,328.5156 C395,328.5156 395.2656,328.375 395.4375,328.1563 C395.5469,328 395.5781,327.8125 395.5781,327.3906 L395.5781,325.9688 C395.5781,325.5313 395.5625,325.4063 395.4688,325.25 C395.3125,324.9844 395.0313,324.8438 394.7344,324.8438 C394.4375,324.8438 394.2344,324.9375 394.0156,325.25 L393.8438,325.1719 Z " fill="#000000"/><ellipse cx="410.5" cy="329" fill="#84BE84" rx="3" ry="3" style="stroke: #038048; stroke-width: 1.0;"/><text fill="#000000" font-family="sans-serif" font-size="12" lengthAdjust="spacingAndGlyphs" textLength="94" x="416.5" y="333.6543">UsageWithTime</text><line style="stroke: #A80036; stroke-width: 1.5;" x1="377.5" x2="512.5" y1="345.5" y2="345.5"/><ellipse cx="387.5" cy="356.5" fill="none" rx="3" ry="3" style="stroke: #038048; stroke-width: 1.0;"/><text fill="#000000" font-family="sans-serif" font-size="11" lengthAdjust="spacingAndGlyphs" textLength="106" x="396.5" y="359.7104">TimeStamp: String</text><ellipse cx="387.5" cy="369.3047" fill="none" rx="3" ry="3" style="stroke: #038048; stroke-width: 1.0;"/><text fill="#000000" font-family="sans-serif" font-size="11" lengthAdjust="spacingAndGlyphs" textLength="84" x="396.5" y="372.5151">Usage: Double</text><line style="stroke: #A80036; stroke-width: 1.5;" x1="377.5" x2="512.5" y1="379.1094" y2="379.1094"/><!--MD5=[ed15e4b4378ef2b54f6eaba16beaf40a]
reverse link AppCompatActivity to MainActivity--><path d="M1363.8,141.288 C1300.74,173.536 1201.1,224.566 1115,269 C1103.14,275.119 1090.78,281.512 1078.44,287.905 " fill="none" id="AppCompatActivity-backto-MainActivity" style="stroke: #A80036; stroke-width: 1.0;"/><polygon fill="none" points="1360.76,134.983,1381.75,132.112,1367.13,147.448,1360.76,134.983" style="stroke: #A80036; stroke-width: 1.0;"/><!--MD5=[78363f8a36c747d5c69bf7bf5d15b844]
reverse link AppCompatActivity to AddServerActivity--><path d="M1401.14,148.872 C1374.08,190.588 1331.58,256.113 1302.56,300.847 " fill="none" id="AppCompatActivity-backto-AddServerActivity" style="stroke: #A80036; stroke-width: 1.0;"/><polygon fill="none" points="1395.29,145.03,1412.04,132.06,1407.03,152.649,1395.29,145.03" style="stroke: #A80036; stroke-width: 1.0;"/><!--MD5=[195b0a12bf4b3effbd56f07b468145f2]
reverse link AppCompatActivity to SelectServerActivity--><path d="M1453.19,149.122 C1484.62,197.269 1536.59,276.868 1564.62,319.82 " fill="none" id="AppCompatActivity-backto-SelectServerActivity" style="stroke: #A80036; stroke-width: 1.0;"/><polygon fill="none" points="1447.13,152.634,1442.05,132.06,1458.85,144.981,1447.13,152.634" style="stroke: #A80036; stroke-width: 1.0;"/><!--MD5=[c559f8ad0888b4ff9e036498a733d48a]
reverse link AppCompatActivity to SeeInfos--><path d="M1497.56,140.385 C1562.72,170.4 1661.34,218.46 1742,269 C1747.58,272.497 1753.23,276.213 1758.87,280.056 " fill="none" id="AppCompatActivity-backto-SeeInfos" style="stroke: #A80036; stroke-width: 1.0;"/><polygon fill="none" points="1494.57,146.716,1479.28,132.038,1500.38,133.981,1494.57,146.716" style="stroke: #A80036; stroke-width: 1.0;"/><!--MD5=[6da2aea899eade5c424d70c6bfacfda5]
reverse link Utilities to Server--><path codeLine="79" d="M668,222.597 C668,252.795 668,283.555 668,307.226 " fill="none" id="Utilities-backto-Server" style="stroke: #A80036; stroke-width: 1.0;"/><polygon fill="#A80036" points="668,209.252,664,215.252,668,221.252,672,215.252,668,209.252" style="stroke: #A80036; stroke-width: 1.0;"/><!--MD5=[96313b6f3137daac8afc821c2826c873]
reverse link InfluxDB to ParameterStringBuilder--><path codeLine="80" d="M213.11,202.533 C202.005,244.262 189.698,290.511 181.91,319.776 " fill="none" id="InfluxDB-backto-ParameterStringBuilder" style="stroke: #A80036; stroke-width: 1.0;"/><polygon fill="#A80036" points="216.511,189.752,211.1026,194.5217,213.4253,201.3485,218.8336,196.5788,216.511,189.752" style="stroke: #A80036; stroke-width: 1.0;"/><!--MD5=[ffc54f07446e2ae2a3593391750de59c]
reverse link InfluxDB to UsageWithTime--><path codeLine="81" d="M316.059,199.691 C350.077,239.215 388.004,283.28 413.866,313.327 " fill="none" id="InfluxDB-backto-UsageWithTime" style="stroke: #A80036; stroke-width: 1.0;"/><polygon fill="#A80036" points="307.504,189.752,308.3862,196.9089,315.3319,198.8472,314.4497,191.6903,307.504,189.752" style="stroke: #A80036; stroke-width: 1.0;"/><!--MD5=[abb0249f4dc32b5427fe6df80b6b40ae]
@startuml
+class InfluxDB {
        + String currentServerAddress

        +InfluxDB(): void
        +setCurrentServerAddress(String address) : void
        +getRamUsage() : Double
        +getCPUUsage() : Double
        +getUptime() : int
        -doInfluxRequest(parameters: Map<string, string>): StringBuffer
        +getCPUOverTime(): UsageWithTime[]
        +getRAMOverTime(): UsageWithTime[]
    }

    +class Utilities {
        - {static} ArrayList<Server> servers
        - {static} int selectedServerIndex
        + {static} Utilities()
        + {static} getAllServersAsString() : String[]
        + {static} addServer(server: Server) : void
        + {static} getCurrentServerIndex() : int
        + {static} setCurrentServer(serverIndex: int) : void
        + {static} getCurrentServer() : Server 
        + {static} deleteServer(serverIndex: int): void
        + {static} editServer(serverIndex: int, server: Server)
        + {static} saveData(): void
        + {static} loadData(): void
    }

    +class MainActivity extends AppCompatActivity {
        # onCreate(saveInstanceState: Bundle) : void
        + selectServerClick(view: View) : void
        + addServerClick(view: View) : void
        + statisticsClick(view: View) : void
        + deleteServerClick(view: View): void
        + editServerClick(view: View): void
    }

    +class AddServerActivity extends AppCompatActivity {
        + addButton : Button
        + nameEdit : EditText
        + addressEdit : EditText

        # onCreate(saveInstanceState: Bundle) : void
    }

    +class SelectServerActivity extends AppCompatActivity {
        # onCreate(saveInstanceState : Bundle) : void
    }

    +class SeeInfos extends AppCompatActivity {
        + ram_usage : TextView
        + cpu_usage : TextView
        + server_name : TextView
        + uptime: TextView
        + server : Server
        + influxDB : InfluxDB
        + cpu_gauge: CustomGauge
        + ram_gauge: CustomGauge

        + onCreate() : void
    }

    +class ParameterStringBuilder {
        + {static} getParamsString(params: Map<String, String>) : String
    }

    +class Server {
        + Name: String
        + Address: String

        + Server(name: String, address: String)
    }

    +class UsageWithTime {
        + TimeStamp: String
        + Usage: Double
    }

    Utilities *- - Server
    InfluxDB *- - ParameterStringBuilder
    InfluxDB *- - UsageWithTime
@enduml

PlantUML version 1.2020.20beta13(Unknown compile time)
(GPL source distribution)
Java Runtime: Java(TM) SE Runtime Environment
JVM: Java HotSpot(TM) 64-Bit Server VM
Default Encoding: UTF-8
Language: en
Country: US
--></g></svg>