<?xml version="1.0" encoding="UTF-8" standalone="no"?><svg xmlns="http://www.w3.org/2000/svg" xmlns:xlink="http://www.w3.org/1999/xlink" contentScriptType="application/ecmascript" contentStyleType="text/css" height="346px" preserveAspectRatio="none" style="width:993px;height:346px;" version="1.1" viewBox="0 0 993 346" width="993px" zoomAndPan="magnify"><defs><filter height="300%" id="fpe08pic0nm44" width="300%" x="-1" y="-1"><feGaussianBlur result="blurOut" stdDeviation="2.0"/><feColorMatrix in="blurOut" result="blurOut2" type="matrix" values="0 0 0 0 0 0 0 0 0 0 0 0 0 0 0 0 0 0 .4 0"/><feOffset dx="4.0" dy="4.0" in="blurOut2" result="blurOut3"/><feBlend in="SourceGraphic" in2="blurOut3" mode="normal"/></filter></defs><g><!--MD5=[fee662a292a0353a69bd162820bae93b]
entity User--><ellipse cx="40" cy="138.2969" fill="#FEFECE" filter="url(#fpe08pic0nm44)" rx="8" ry="8" style="stroke: #A80036; stroke-width: 1.5;"/><path d="M40,146.2969 L40,173.2969 M27,154.2969 L53,154.2969 M40,173.2969 L27,188.2969 M40,173.2969 L53,188.2969 " fill="none" filter="url(#fpe08pic0nm44)" style="stroke: #A80036; stroke-width: 1.5;"/><text fill="#000000" font-family="sans-serif" font-size="14" lengthAdjust="spacingAndGlyphs" textLength="32" x="24" y="206.792">User</text><text fill="#000000" font-family="sans-serif" font-size="14" font-style="italic" lengthAdjust="spacingAndGlyphs" textLength="68" x="6" y="125.4951">«Human»</text><!--MD5=[645d8587175d8f7ad110cd370775931d]
entity API--><ellipse cx="949.5" cy="208.2969" fill="#FEFECE" filter="url(#fpe08pic0nm44)" rx="8" ry="8" style="stroke: #A80036; stroke-width: 1.5;"/><path d="M949.5,216.2969 L949.5,243.2969 M936.5,224.2969 L962.5,224.2969 M949.5,243.2969 L936.5,258.2969 M949.5,243.2969 L962.5,258.2969 " fill="none" filter="url(#fpe08pic0nm44)" style="stroke: #A80036; stroke-width: 1.5;"/><text fill="#000000" font-family="sans-serif" font-size="14" lengthAdjust="spacingAndGlyphs" textLength="21" x="939" y="276.792">API</text><text fill="#000000" font-family="sans-serif" font-size="14" font-style="italic" lengthAdjust="spacingAndGlyphs" textLength="63" x="918" y="195.4951">«Server»</text><ellipse cx="165.1565" cy="40.6313" fill="#FEFECE" filter="url(#fpe08pic0nm44)" rx="61.1565" ry="14.6313" style="stroke: #A80036; stroke-width: 1.5;"/><text fill="#000000" font-family="sans-serif" font-size="14" lengthAdjust="spacingAndGlyphs" textLength="83" x="123.6565" y="45.2797">View events</text><ellipse cx="330.7036" cy="93.6407" fill="#FEFECE" filter="url(#fpe08pic0nm44)" rx="63.7036" ry="15.1407" style="stroke: #A80036; stroke-width: 1.5;"/><text fill="#000000" font-family="sans-serif" font-size="14" lengthAdjust="spacingAndGlyphs" textLength="90" x="285.7036" y="98.2892">Select server</text><ellipse cx="540.6543" cy="161.5236" fill="#FEFECE" filter="url(#fpe08pic0nm44)" rx="58.1543" ry="14.5236" style="stroke: #A80036; stroke-width: 1.5;"/><text fill="#000000" font-family="sans-serif" font-size="14" lengthAdjust="spacingAndGlyphs" textLength="78" x="501.6543" y="166.1721">Select host</text><ellipse cx="540.466" cy="231.4932" fill="#FEFECE" filter="url(#fpe08pic0nm44)" rx="62.966" ry="14.9932" style="stroke: #A80036; stroke-width: 1.5;"/><text fill="#000000" font-family="sans-serif" font-size="14" lengthAdjust="spacingAndGlyphs" textLength="88" x="496.466" y="236.1416">See all hosts</text><ellipse cx="540.7002" cy="318.34" fill="#FEFECE" filter="url(#fpe08pic0nm44)" rx="74.7002" ry="17.34" style="stroke: #A80036; stroke-width: 1.5;"/><text fill="#000000" font-family="sans-serif" font-size="14" lengthAdjust="spacingAndGlyphs" textLength="118" x="481.7002" y="322.9885">See specific host</text><!--MD5=[bc45c87d00cb6d949ea22ebc8a793b7d]
link User to View events--><path d="M66.5666,112.48 C76.6155,96.614 89.2945,79.926 104,67.5 C110.069,62.371 117.27,58.036 124.54,54.442 " fill="none" id="User-&gt;View events" style="stroke: #A80036; stroke-width: 1.0;"/><polygon fill="#A80036" points="129.066,52.3,119.2199,52.5346,124.5466,54.439,122.6423,59.7656,129.066,52.3" style="stroke: #A80036; stroke-width: 1.0;"/><!--MD5=[bfe97fc75cbd281c479bb06c20b07671]
reverse link View events to API--><path d="M227.553,35.113 C282.041,30.811 363.746,25.5 435,25.5 C435,25.5 435,25.5 767.5,25.5 C850.695,25.5 904.649,121.489 930.517,182.42 " fill="none" id="View events&lt;-API" style="stroke: #A80036; stroke-width: 1.0;"/><polygon fill="#A80036" points="222.366,35.526,231.6553,38.7985,227.3502,35.1289,231.0199,30.8238,222.366,35.526" style="stroke: #A80036; stroke-width: 1.0;"/><text fill="#000000" font-family="sans-serif" font-size="13" lengthAdjust="spacingAndGlyphs" textLength="117" x="482" y="21.5669">Sending all events</text><!--MD5=[a834df82dee794f72d0b4f2c4b9b302d]
link User to Select server--><path d="M74.2119,146.287 C83.6913,142.36 94.1292,138.422 104,135.5 C158.784,119.284 222.989,108.053 268.848,101.312 " fill="none" id="User-&gt;Select server" style="stroke: #A80036; stroke-width: 1.0;"/><polygon fill="#A80036" points="274.067,100.552,264.5847,97.8899,269.1191,101.2721,265.7369,105.8065,274.067,100.552" style="stroke: #A80036; stroke-width: 1.0;"/><!--MD5=[a66f0d4a21ab61a098b4e905605052b9]
link User to Select host--><path d="M74.094,161.5 C156.211,161.5 370.368,161.5 477.124,161.5 " fill="none" id="User-&gt;Select host" style="stroke: #A80036; stroke-width: 1.0;"/><polygon fill="#A80036" points="482.437,161.5,473.437,157.5,477.437,161.5,473.437,165.5,482.437,161.5" style="stroke: #A80036; stroke-width: 1.0;"/><!--MD5=[d2807a2e6fd2a8ffbb7a8843ac44918f]
link User to See all hosts--><path d="M74.094,166.147 C157.067,177.798 374.844,208.379 480.424,223.205 " fill="none" id="User-&gt;See all hosts" style="stroke: #A80036; stroke-width: 1.0;"/><polygon fill="#A80036" points="485.674,223.942,477.3166,218.731,480.7224,223.2477,476.2057,226.6535,485.674,223.942" style="stroke: #A80036; stroke-width: 1.0;"/><text fill="#000000" font-family="sans-serif" font-size="13" lengthAdjust="spacingAndGlyphs" textLength="147" x="257" y="187.5669">Asking for all machines</text><!--MD5=[b43da3beec60fdc3665cdf6e90555f84]
reverse link See all hosts to API--><path d="M609.023,231.5 C698.444,231.5 852.441,231.5 917.768,231.5 " fill="none" id="See all hosts&lt;-API" style="stroke: #A80036; stroke-width: 1.0;"/><polygon fill="#A80036" points="603.758,231.5,612.758,235.5,608.758,231.5,612.758,227.5,603.758,231.5" style="stroke: #A80036; stroke-width: 1.0;"/><text fill="#000000" font-family="sans-serif" font-size="13" lengthAdjust="spacingAndGlyphs" textLength="179" x="677" y="227.5669">Sending all the informations</text><!--MD5=[433b95c3a9d8083587af0d49fe19f2ad]
link User to See specific host--><path d="M74.0744,180.448 C83.5525,185.429 94.0241,190.516 104,194.5 C234.455,246.5981 394.976,286.3812 480.03,305.6582 " fill="none" id="User-&gt;See specific host" style="stroke: #A80036; stroke-width: 1.0;"/><polygon fill="#A80036" points="485.022,306.7857,477.1242,300.9014,480.1448,305.6843,475.3619,308.7049,485.022,306.7857" style="stroke: #A80036; stroke-width: 1.0;"/><!--MD5=[5885de8ac73628452837eb48c90ee7a0]
reverse link See specific host to API--><path d="M605.718,307.2936 C669.676,295.8008 770.531,276.7806 857,256.5 C877.361,251.7244 900.039,245.5344 917.724,240.5086 " fill="none" id="See specific host&lt;-API" style="stroke: #A80036; stroke-width: 1.0;"/><polygon fill="#A80036" points="600.795,308.1764,610.3592,310.5271,605.7167,307.2949,608.9489,302.6524,600.795,308.1764" style="stroke: #A80036; stroke-width: 1.0;"/><text fill="#000000" font-family="sans-serif" font-size="13" lengthAdjust="spacingAndGlyphs" textLength="117" x="708" y="252.5669">Sending host data</text><!--MD5=[43762be8af549a108bbd804350a8c720]
@startuml
left to right direction
:User: << Human >>
:API: << Server >>
(View events)
User -> (View events) : Request all events
(View events) <- API : Sending all events

(Select server)
User - -> (Select server)

(Select host)
User - - -> (Select host)

(See all hosts)
User - - -> (See all hosts) : Asking for all machines
(See all hosts) <- - - API : Sending all the informations 

(See specific host)
User - - -> (See specific host)
(See specific host) <- - - API : Sending host data
@enduml

PlantUML version 1.2020.03beta11(Unknown compile time)
(GPL source distribution)
Java Runtime: Java(TM) SE Runtime Environment
JVM: Java HotSpot(TM) 64-Bit Server VM
Java Version: 1.7.0_25-b15
Operating System: Linux
Default Encoding: UTF-8
Language: en
Country: US
--></g></svg>