<?xml version="1.0" encoding="UTF-8" standalone="no"?><svg xmlns="http://www.w3.org/2000/svg" xmlns:xlink="http://www.w3.org/1999/xlink" contentScriptType="application/ecmascript" contentStyleType="text/css" height="335px" preserveAspectRatio="none" style="width:1143px;height:335px;" version="1.1" viewBox="0 0 1143 335" width="1143px" zoomAndPan="magnify"><defs><filter height="300%" id="f1c73fi1umotzc" width="300%" x="-1" y="-1"><feGaussianBlur result="blurOut" stdDeviation="2.0"/><feColorMatrix in="blurOut" result="blurOut2" type="matrix" values="0 0 0 0 0 0 0 0 0 0 0 0 0 0 0 0 0 0 .4 0"/><feOffset dx="4.0" dy="4.0" in="blurOut2" result="blurOut3"/><feBlend in="SourceGraphic" in2="blurOut3" mode="normal"/></filter></defs><g><!--MD5=[fee662a292a0353a69bd162820bae93b]
entity User--><ellipse cx="89.5" cy="98.7969" fill="#FEFECE" filter="url(#f1c73fi1umotzc)" rx="8" ry="8" style="stroke: #A80036; stroke-width: 1.5;"/><path d="M89.5,106.7969 L89.5,133.7969 M76.5,114.7969 L102.5,114.7969 M89.5,133.7969 L76.5,148.7969 M89.5,133.7969 L102.5,148.7969 " fill="none" filter="url(#f1c73fi1umotzc)" style="stroke: #A80036; stroke-width: 1.5;"/><text fill="#000000" font-family="sans-serif" font-size="14" lengthAdjust="spacingAndGlyphs" textLength="31" x="74" y="167.292">User</text><text fill="#000000" font-family="sans-serif" font-size="14" font-style="italic" lengthAdjust="spacingAndGlyphs" textLength="70" x="54.5" y="85.9951">«Human»</text><!--MD5=[bd4d9cecd59bd7f6f66d4d3e35395fde]
entity InfluxDB--><ellipse cx="1080" cy="210.7969" fill="#FEFECE" filter="url(#f1c73fi1umotzc)" rx="8" ry="8" style="stroke: #A80036; stroke-width: 1.5;"/><path d="M1080,218.7969 L1080,245.7969 M1067,226.7969 L1093,226.7969 M1080,245.7969 L1067,260.7969 M1080,245.7969 L1093,260.7969 " fill="none" filter="url(#f1c73fi1umotzc)" style="stroke: #A80036; stroke-width: 1.5;"/><text fill="#000000" font-family="sans-serif" font-size="14" lengthAdjust="spacingAndGlyphs" textLength="60" x="1050" y="279.292">InfluxDB</text><text fill="#000000" font-family="sans-serif" font-size="14" font-style="italic" lengthAdjust="spacingAndGlyphs" textLength="102" x="1029" y="197.9951">«DataSource»</text><!--MD5=[b1435b213846e3ddcd1e6c1cd6b83b9a]
entity Server--><ellipse cx="89.5" cy="253.7969" fill="#FEFECE" filter="url(#f1c73fi1umotzc)" rx="8" ry="8" style="stroke: #A80036; stroke-width: 1.5;"/><path d="M89.5,261.7969 L89.5,288.7969 M76.5,269.7969 L102.5,269.7969 M89.5,288.7969 L76.5,303.7969 M89.5,288.7969 L102.5,303.7969 " fill="none" filter="url(#f1c73fi1umotzc)" style="stroke: #A80036; stroke-width: 1.5;"/><text fill="#000000" font-family="sans-serif" font-size="14" lengthAdjust="spacingAndGlyphs" textLength="47" x="66" y="322.292">Server</text><text fill="#000000" font-family="sans-serif" font-size="14" font-style="italic" lengthAdjust="spacingAndGlyphs" textLength="167" x="6" y="240.9951">«Computer to monitor»</text><ellipse cx="357.0794" cy="57.0159" fill="#FEFECE" filter="url(#f1c73fi1umotzc)" rx="65.5794" ry="15.5159" style="stroke: #A80036; stroke-width: 1.5;"/><text fill="#000000" font-family="sans-serif" font-size="14" lengthAdjust="spacingAndGlyphs" textLength="95" x="309.5794" y="61.6643">Select server</text><ellipse cx="89.4472" cy="23.0236" fill="#FEFECE" filter="url(#f1c73fi1umotzc)" rx="57.4472" ry="14.5236" style="stroke: #A80036; stroke-width: 1.5;"/><text fill="#000000" font-family="sans-serif" font-size="14" lengthAdjust="spacingAndGlyphs" textLength="77" x="50.9472" y="27.6721">Add server</text><ellipse cx="356.8614" cy="122.0236" fill="#FEFECE" filter="url(#f1c73fi1umotzc)" rx="58.8614" ry="14.5236" style="stroke: #A80036; stroke-width: 1.5;"/><text fill="#000000" font-family="sans-serif" font-size="14" lengthAdjust="spacingAndGlyphs" textLength="79" x="317.3614" y="126.6721">Add Server</text><ellipse cx="604.3762" cy="190.0236" fill="#FEFECE" filter="url(#f1c73fi1umotzc)" rx="50.3762" ry="14.5236" style="stroke: #A80036; stroke-width: 1.5;"/><text fill="#000000" font-family="sans-serif" font-size="14" lengthAdjust="spacingAndGlyphs" textLength="67" x="570.8762" y="194.6721">See stats</text><ellipse cx="604.7036" cy="277.1407" fill="#FEFECE" filter="url(#f1c73fi1umotzc)" rx="63.7036" ry="15.1407" style="stroke: #A80036; stroke-width: 1.5;"/><text fill="#000000" font-family="sans-serif" font-size="14" lengthAdjust="spacingAndGlyphs" textLength="90" x="559.7036" y="281.7892">Adding stats</text><!--MD5=[a834df82dee794f72d0b4f2c4b9b302d]
link User to Select server--><path d="M124.666,113.635 C170.66,102.375 252.826,82.259 305.839,69.281 " fill="none" id="User-&gt;Select server" style="stroke: #A80036; stroke-width: 1.0;"/><polygon fill="#A80036" points="310.876,68.047,301.183,66.3015,306.0194,69.2358,303.0851,74.0721,310.876,68.047" style="stroke: #A80036; stroke-width: 1.0;"/><!--MD5=[e77ebfeaebebf892e93d0a93ea7f700b]
link User to Add Server--><path d="M124.666,122 C167.065,122 240.201,122 292.903,122 " fill="none" id="User-&gt;Add Server" style="stroke: #A80036; stroke-width: 1.0;"/><polygon fill="#A80036" points="297.938,122,288.938,118,292.938,122,288.938,126,297.938,122" style="stroke: #A80036; stroke-width: 1.0;"/><!--MD5=[fb317c7990563171e639e7e0c6512524]
link User to See stats--><path d="M124.777,130.884 C153.708,138.083 196.317,147.986 234,154 C345.57,171.806 477.593,182.107 549.749,186.831 " fill="none" id="User-&gt;See stats" style="stroke: #A80036; stroke-width: 1.0;"/><polygon fill="#A80036" points="554.839,187.162,546.1173,182.5868,549.8495,186.8377,545.5985,190.5699,554.839,187.162" style="stroke: #A80036; stroke-width: 1.0;"/><!--MD5=[3182d8ca2e4a28bd8649922308a8336c]
reverse link See stats to InfluxDB--><path d="M659.783,192.468 C735.838,196.304 878.338,204.879 999,220 C1008.65,221.21 1018.91,222.784 1028.76,224.439 " fill="none" id="See stats&lt;-InfluxDB" style="stroke: #A80036; stroke-width: 1.0;"/><polygon fill="#A80036" points="654.423,192.199,663.2118,196.6439,659.4167,192.449,663.6117,188.654,654.423,192.199" style="stroke: #A80036; stroke-width: 1.0;"/><text fill="#000000" font-family="sans-serif" font-size="13" lengthAdjust="spacingAndGlyphs" textLength="116" x="790.5" y="192.0669">Sending host data</text><!--MD5=[066efdd2964fe9ebb21a0338645bf4b4]
link Server to Adding stats--><path d="M173.207,277 C273.895,277 442.038,277 535.538,277 " fill="none" id="Server-&gt;Adding stats" style="stroke: #A80036; stroke-width: 1.0;"/><polygon fill="#A80036" points="540.76,277,531.76,273,535.76,277,531.76,281,540.76,277" style="stroke: #A80036; stroke-width: 1.0;"/><text fill="#000000" font-family="sans-serif" font-size="13" lengthAdjust="spacingAndGlyphs" textLength="244" x="235" y="273.0669">Sending infos like CPU and RAM usage</text><!--MD5=[6e67a7beeb2bc60b7719a13c69169b6e]
link Adding stats to InfluxDB--><path d="M666.549,273.7385 C738.691,269.587 862.291,261.5416 968,250 C986.222,248.0104 1006.05,245.3202 1023.85,242.7138 " fill="none" id="Adding stats-&gt;InfluxDB" style="stroke: #A80036; stroke-width: 1.0;"/><polygon fill="#A80036" points="1028.81,241.9815,1019.3232,239.3357,1023.8634,242.7101,1020.4889,247.2503,1028.81,241.9815" style="stroke: #A80036; stroke-width: 1.0;"/><text fill="#000000" font-family="sans-serif" font-size="13" lengthAdjust="spacingAndGlyphs" textLength="237" x="730" y="246.0669">Adding it to the time series database</text><!--MD5=[d78f91e32698598ed41c27697b9f74e6]
@startuml
left to right direction
:User: << Human >>
:InfluxDB: << DataSource >>
:Server: <<Computer to monitor>>


(Select server)
User - -> (Select server)

(Add server)
User - -> (Add Server)


(See stats)
User - - -> (See stats)
(See stats) <- - - InfluxDB : Sending host data

(Adding stats)
Server - - -> (Adding stats) : Sending infos like CPU and RAM usage
(Adding stats) - - -> InfluxDB : Adding it to the time series database
@enduml

PlantUML version 1.2020.09(Sun May 10 10:51:06 UTC 2020)
(GPL source distribution)
Java Runtime: Java(TM) SE Runtime Environment
JVM: Java HotSpot(TM) 64-Bit Server VM
Java Version: 14.0.1+7
Operating System: Linux
Default Encoding: UTF-8
Language: en
Country: US
--></g></svg>